<?xml version="1.0" standalone="no"?>
<!DOCTYPE svg PUBLIC "-//W3C//DTD SVG 20010904//EN"
 "http://www.w3.org/TR/2001/REC-SVG-20010904/DTD/svg10.dtd">
<svg version="1.0" xmlns="http://www.w3.org/2000/svg"
 width="400.000000pt" height="400.000000pt" viewBox="0 0 400.000000 400.000000"
 preserveAspectRatio="xMidYMid meet">
<metadata>
Created by potrace 1.14, written by Peter Selinger 2001-2017
</metadata>
<g transform="translate(0.000000,400.000000) scale(0.100000,-0.100000)"
fill="#000000" stroke="none">
<path d="M2070 3625 c-30 -8 -97 -14 -148 -15 -72 0 -101 -4 -131 -20 -21 -10
-41 -17 -44 -13 -6 5 -59 -28 -85 -54 -7 -7 -26 -13 -41 -13 -16 0 -43 -3 -61
-6 l-32 -7 28 -12 c20 -9 24 -14 14 -17 -8 -3 -30 -10 -47 -16 -33 -10 -59 2
-29 14 9 3 16 10 16 16 0 17 -61 -26 -80 -57 -10 -16 -17 -43 -15 -60 1 -16 0
-20 -2 -8 -4 22 -7 21 -49 -19 -44 -42 -53 -65 -33 -85 11 -11 0 -61 -22 -105
-5 -10 -9 -31 -9 -48 0 -16 -4 -30 -8 -30 -5 0 -24 -30 -43 -67 -19 -37 -40
-74 -47 -81 -7 -8 -10 -18 -7 -23 4 -5 1 -9 -6 -9 -7 0 -9 -3 -6 -6 4 -4 0
-19 -7 -33 -28 -55 -37 -78 -40 -104 -6 -54 19 -22 39 51 3 12 11 22 16 22 6
0 8 4 5 9 -3 5 10 28 29 52 19 24 35 49 35 54 0 37 134 189 160 182 8 -2 21 2
28 9 7 7 19 11 27 7 10 -3 15 0 13 8 -2 10 6 13 29 11 19 -2 46 4 62 14 29 17
31 17 51 -1 17 -15 23 -16 29 -6 5 7 24 13 42 12 103 -3 158 -9 189 -23 25
-11 45 -12 70 -6 42 11 61 11 250 4 80 -3 175 -5 212 -5 37 0 75 -4 85 -9 10
-6 45 -18 78 -27 33 -10 75 -29 93 -43 50 -38 89 -122 99 -212 3 -25 10 -49
17 -55 7 -5 11 -15 9 -22 -2 -6 1 -14 7 -18 8 -5 5 -11 -6 -20 -16 -11 -15
-14 14 -29 17 -9 39 -16 49 -17 11 0 13 -3 5 -6 -10 -4 -10 -8 -1 -19 18 -22
23 -85 7 -95 -8 -5 -8 -9 -2 -9 8 0 10 -25 7 -82 -2 -46 -7 -132 -10 -191 l-5
-108 -36 5 c-56 8 -211 25 -267 30 -74 6 -120 20 -120 36 0 8 -4 21 -8 28 -5
7 -2 14 7 18 23 9 61 0 59 -13 -2 -9 4 -10 23 -3 14 6 30 7 36 4 7 -4 8 -2 4
4 -5 8 2 10 23 6 20 -4 35 -1 45 9 14 13 13 15 -5 20 -12 3 -18 10 -14 17 4 6
1 24 -5 40 -12 30 -55 50 -107 50 -12 0 -25 5 -29 12 -5 7 -3 8 6 3 9 -6 11
-4 5 4 -5 9 -19 11 -42 6 -26 -5 -33 -3 -28 5 6 9 -4 10 -36 5 -24 -4 -48 -8
-54 -9 -5 0 -13 -8 -17 -16 -5 -10 -7 -7 -7 10 -1 19 -4 21 -13 12 -7 -7 -27
-12 -45 -12 -22 0 -36 -6 -43 -20 -6 -11 -17 -20 -24 -20 -7 0 -23 -11 -36
-26 -26 -26 -64 -27 -85 0 -15 19 -55 27 -55 10 0 -8 -5 -14 -10 -14 -6 0 -5
-8 2 -20 11 -16 9 -22 -7 -34 -19 -14 -19 -15 -2 -21 19 -8 24 -35 6 -35 -16
0 -64 52 -61 67 2 7 -6 9 -19 6 -14 -4 -26 0 -34 10 -6 9 -20 16 -31 16 -22
-1 -60 7 -73 15 -5 4 -11 1 -13 -5 -2 -6 -16 -1 -33 13 -26 20 -41 23 -115 23
-100 0 -120 -3 -120 -20 0 -7 -7 -15 -15 -19 -18 -7 -20 -46 -2 -46 7 0 26
-12 43 -27 17 -16 40 -33 50 -40 29 -18 0 -33 -67 -33 -31 0 -59 -3 -63 -7
-13 -13 -134 -33 -251 -42 -145 -11 -172 -23 -158 -66 4 -11 8 -51 8 -90 3
-116 4 -119 18 -107 10 8 16 -6 30 -68 17 -74 20 -79 55 -95 20 -9 68 -32 106
-51 42 -21 101 -40 154 -49 48 -9 91 -20 96 -25 13 -13 -76 -100 -103 -100
-11 0 -21 -5 -21 -11 0 -5 -5 -7 -11 -4 -5 4 -18 1 -27 -7 -9 -8 -28 -20 -42
-27 -44 -22 -63 -59 -66 -128 -2 -37 3 -81 12 -105 20 -57 19 -128 -2 -128
-12 0 -15 -7 -12 -25 3 -14 2 -25 -3 -25 -36 0 180 -299 280 -387 32 -29 75
-77 95 -107 44 -66 89 -105 176 -150 109 -56 161 -69 260 -64 164 10 219 49
516 368 113 122 161 180 184 223 l21 39 -25 22 c-16 13 -26 32 -26 49 0 23 -4
27 -18 23 -16 -5 -62 25 -62 40 0 13 26 30 41 27 22 -6 34 14 19 32 -9 11 -9
15 -1 15 6 0 11 12 11 28 0 15 9 43 19 63 11 20 22 58 25 85 4 34 3 43 -3 29
-5 -11 -10 -14 -10 -7 -2 25 -64 102 -83 102 -10 0 -18 5 -18 11 0 6 -6 9 -12
6 -7 -2 -29 7 -48 20 -19 12 -40 23 -46 23 -15 0 -24 48 -10 54 6 2 0 5 -14 6
-32 2 62 30 102 30 15 0 29 4 33 10 3 5 12 7 19 4 7 -3 20 2 29 10 8 8 17 12
21 9 3 -4 6 -1 6 5 0 6 24 18 53 27 28 10 66 25 83 35 l32 18 6 -30 c3 -18 11
-28 18 -26 31 10 50 138 27 180 -7 13 -8 45 -4 92 5 48 10 65 15 51 15 -41 30
-116 30 -152 0 -20 3 -33 7 -29 13 12 32 118 32 179 1 56 1 57 -24 51 -24 -6
-25 -4 -25 35 0 34 -4 43 -25 53 -25 11 -26 24 -9 63 5 11 9 119 9 240 0 241
-2 250 -76 413 -18 40 -28 76 -24 89 3 12 2 23 -3 26 -4 2 -1 2 6 1 6 -2 12
-2 13 -1 0 1 3 23 6 49 4 40 2 47 -16 53 -25 8 -27 21 -4 29 12 5 13 10 5 18
-6 6 -8 16 -5 23 2 7 -3 15 -13 17 -12 2 -18 13 -19 38 -3 58 -43 145 -86 186
-21 20 -32 25 -37 17 -6 -9 -19 -9 -52 -1 -48 12 -76 28 -47 28 9 0 17 5 17
10 0 6 -7 10 -16 10 -10 0 -14 6 -11 14 3 8 -1 20 -9 26 -8 7 -14 9 -14 4 0
-5 -4 -4 -8 1 -17 24 -76 57 -110 62 -20 3 -44 12 -53 19 -38 33 -201 43 -299
19z m280 -45 c0 -5 -9 -10 -20 -10 -11 0 -20 5 -20 10 0 6 9 10 20 10 11 0 20
-4 20 -10z m115 -50 c3 -5 -1 -10 -9 -10 -9 0 -16 5 -16 10 0 6 4 10 9 10 6 0
13 -4 16 -10z m-798 -82 c-3 -7 -5 -2 -5 12 0 14 2 19 5 13 2 -7 2 -19 0 -25z
m-127 -17 c0 -9 -23 -21 -41 -21 -4 0 -6 7 -3 15 7 16 44 21 44 6z m207 -28
c-3 -10 -5 -4 -5 12 0 17 2 24 5 18 2 -7 2 -21 0 -30z m909 1 c17 -14 17 -15
1 -10 -10 3 -23 6 -28 6 -5 0 -9 5 -9 10 0 14 13 12 36 -6z m-1059 -26 c-3 -8
-6 -5 -6 6 -1 11 2 17 5 13 3 -3 4 -12 1 -19z m63 -10 c0 -5 -4 -8 -10 -8 -5
0 -10 10 -10 23 0 18 2 19 10 7 5 -8 10 -18 10 -22z m618 7 c-3 -3 -9 2 -12
12 -6 14 -5 15 5 6 7 -7 10 -15 7 -18z m-397 -22 c-9 -16 -10 -14 -11 12 0 21
3 26 11 18 8 -8 8 -16 0 -30z m-117 11 c3 -8 2 -12 -4 -9 -6 3 -10 10 -10 16
0 14 7 11 14 -7z m936 -16 c0 -13 -23 -5 -28 10 -2 7 2 10 12 6 9 -3 16 -11
16 -16z m-44 -54 c-30 -22 -38 -17 -20 12 13 18 20 22 28 14 8 -8 6 -15 -8
-26z m119 -54 c3 -5 1 -10 -4 -10 -6 0 -11 5 -11 10 0 6 2 10 4 10 3 0 8 -4
11 -10z m-769 -1004 c16 -16 19 -40 4 -31 -12 8 -33 45 -25 45 4 0 13 -6 21
-14z m-40 -53 c-10 -10 -19 5 -10 18 6 11 8 11 12 0 2 -7 1 -15 -2 -18z m-643
-20 c4 -3 3 -11 -3 -17 -5 -7 -10 -33 -11 -59 -2 -27 -8 -51 -13 -55 -6 -4
-12 -17 -12 -30 -1 -18 2 -22 15 -17 73 29 97 29 151 2 l54 -27 -35 -1 c-18
-1 -45 -4 -58 -8 -21 -6 -20 -7 15 -20 22 -8 50 -18 64 -24 l25 -10 -25 -6
c-37 -10 -32 -35 8 -39 18 -2 62 -19 98 -38 35 -19 74 -34 87 -34 18 0 19 2 7
11 -12 8 -10 9 8 4 13 -4 30 -1 38 6 20 16 44 20 44 7 0 -26 -44 -107 -61
-111 -11 -3 -19 0 -19 6 0 8 -17 11 -50 9 -27 -2 -48 -7 -45 -12 7 -11 -58
-20 -102 -14 -92 12 -164 27 -169 35 -3 5 -22 9 -42 9 -43 0 -110 29 -133 56
-16 19 -41 92 -45 129 -1 11 -7 46 -13 78 -12 57 -7 102 9 92 5 -3 16 5 24 17
l16 22 0 -22 c0 -13 6 -22 15 -22 10 0 15 8 14 23 -5 50 0 56 44 60 80 7 94 7
100 0z m1485 -9 c13 -4 21 -12 19 -18 -3 -7 1 -20 9 -31 13 -18 14 -18 14 4 0
13 4 20 11 15 7 -4 8 -19 4 -38 -3 -17 -5 -55 -5 -84 1 -64 -18 -164 -30 -157
-5 3 -7 -6 -4 -21 9 -47 -30 -73 -159 -106 -83 -21 -247 -33 -247 -18 0 4 6 7
13 6 6 0 13 4 14 9 0 6 -3 9 -7 8 -4 -1 -8 13 -8 32 0 18 -3 39 -8 46 -5 9 3
11 35 6 50 -6 81 1 81 19 0 8 5 14 10 14 6 0 10 5 10 11 0 7 -10 9 -25 7 -13
-3 -22 -1 -19 3 3 5 21 9 41 9 25 0 34 4 30 14 -9 23 34 51 80 51 35 0 44 4
53 24 9 20 8 26 -4 33 -9 5 -16 20 -16 33 0 14 -5 25 -10 25 -6 0 -15 12 -21
28 -24 64 -35 81 -54 86 -11 3 23 3 75 0 52 -2 105 -7 118 -10z m-1218 -16
c-3 -24 -39 -104 -47 -105 -14 -3 -80 24 -87 35 -6 10 40 56 64 65 15 5 70 9
70 5z m420 -8 c12 -8 11 -10 -7 -10 -13 0 -23 5 -23 10 0 13 11 13 30 0z m270
-11 c0 -18 -2 -20 -15 -9 -13 11 -13 15 -3 21 18 12 18 12 18 -12z m-40 1 c0
-5 -7 -10 -16 -10 -8 0 -12 5 -9 10 3 6 10 10 16 10 5 0 9 -4 9 -10z m162 -22
c9 -23 -3 -38 -30 -38 -48 0 -57 15 -20 33 40 20 45 20 50 5z m-437 -95 c28
-33 24 -43 -16 -43 -41 0 -64 -14 -95 -58 l-26 -37 7 35 c11 54 20 73 50 103
35 34 50 34 80 0z m405 17 c0 -5 -4 -10 -10 -10 -5 0 -10 5 -10 10 0 6 5 10
10 10 6 0 10 -4 10 -10z m255 -60 c3 -5 1 -10 -4 -10 -6 0 -11 5 -11 10 0 6 2
10 4 10 3 0 8 -4 11 -10z m-671 -25 c-6 -16 -24 -21 -24 -7 0 11 11 22 21 22
5 0 6 -7 3 -15z m621 5 c-3 -5 -12 -10 -18 -10 -7 0 -6 4 3 10 19 12 23 12 15
0z m-607 -52 c2 -10 15 -21 28 -24 13 -3 41 -25 63 -49 22 -24 42 -40 45 -37
3 3 6 -2 6 -10 0 -18 49 -70 60 -63 4 3 10 -2 13 -10 4 -10 1 -12 -10 -8 -35
14 34 -50 75 -69 37 -16 43 -23 38 -41 -3 -12 -6 -28 -6 -35 0 -7 -4 -10 -10
-7 -5 3 -10 2 -10 -4 0 -6 -7 -8 -15 -5 -8 4 -15 1 -15 -5 0 -17 -28 -13 -39
6 -8 15 -14 16 -40 6 -18 -6 -33 -7 -37 -2 -3 5 -20 9 -39 9 -19 0 -36 4 -39
8 -5 8 -30 8 -113 -1 -18 -2 -39 -9 -47 -16 -10 -9 -53 -13 -123 -14 l-108 -2
-3 26 c-5 45 23 96 64 117 21 11 57 44 80 73 23 30 47 53 53 51 7 -1 10 2 6 7
-7 13 16 58 50 99 28 33 64 34 73 0z m186 -151 c7 -6 6 -7 -4 -4 -8 2 -16 12
-17 23 -2 13 -1 15 4 4 3 -8 11 -19 17 -23z m56 -77 c0 -5 -2 -10 -4 -10 -3 0
-8 5 -11 10 -3 6 -1 10 4 10 6 0 11 -4 11 -10z m69 -613 c13 -16 5 -27 -21
-27 -20 0 -21 1 -12 24 7 20 18 20 33 3z m-122 -193 c-3 -3 -12 -4 -19 -1 -8
3 -5 6 6 6 11 1 17 -2 13 -5z m-259 -61 c8 -27 8 -39 0 -44 -6 -4 -7 -12 -4
-18 4 -6 -1 -14 -11 -18 -10 -4 -22 -13 -28 -20 -23 -29 -84 -51 -130 -45 -33
3 -45 9 -41 18 7 18 -14 30 -24 14 -6 -10 -13 -8 -31 9 -21 20 -21 21 -3 21
14 0 16 2 5 9 -10 6 -10 13 -2 28 14 28 63 46 107 40 57 -8 106 3 112 25 8 32
38 21 50 -19z m227 27 c-8 -13 -35 -13 -55 0 -11 7 -5 10 23 10 23 0 36 -4 32
-10z m179 -55 c8 -9 13 -22 9 -31 -5 -13 -8 -13 -24 2 -20 18 -26 44 -10 44 5
0 16 -7 25 -15z"/>
<path d="M1250 2113 c1 -31 24 -81 32 -67 3 5 3 27 -1 48 -7 47 -31 62 -31 19z"/>
<path d="M2706 2083 c-4 -9 -4 -18 -2 -21 8 -7 36 6 36 17 0 16 -28 20 -34 4z"/>
<path d="M1127 2703 c-11 -10 -8 -43 3 -43 6 0 10 11 10 25 0 26 -2 29 -13 18z"/>
<path d="M1110 2621 c0 -11 5 -23 10 -26 6 -3 10 3 10 14 0 11 -4 23 -10 26
-5 3 -10 -3 -10 -14z"/>
<path d="M1116 2562 c-9 -15 0 -232 10 -230 12 4 14 218 2 218 -5 0 -6 5 -3
10 3 6 4 10 1 10 -3 0 -7 -4 -10 -8z"/>
<path d="M2610 2260 l-35 -7 38 -2 c20 0 37 4 37 9 0 6 -1 9 -2 9 -2 -1 -19
-5 -38 -9z"/>
</g>
</svg>
