<svg width="277" height="85" viewBox="0 0 277 85" fill="none" xmlns="http://www.w3.org/2000/svg">
<g filter="url(#filter0_d)">
<rect x="6" y="7" width="95" height="2" rx="1" fill="#F2F2F2"/>
<rect x="177" y="7" width="96" height="2" rx="1" fill="#F2F2F2"/>
<path d="M106.951 13.9248C106.714 14.0661 106.441 14.1367 106.131 14.1367C105.826 14.1367 105.557 14.0638 105.324 13.918C105.092 14.0638 104.875 14.1367 104.675 14.1367C104.479 14.1367 104.317 14.1185 104.189 14.082C104.062 14.0501 103.952 14.0046 103.861 13.9453C103.661 13.8268 103.561 13.6787 103.561 13.501C103.561 13.4098 103.586 13.3301 103.636 13.2617C103.736 13.3392 103.864 13.3779 104.019 13.3779C104.424 13.3779 104.704 13.2048 104.859 12.8584V9.50879C104.859 9.30371 104.818 9.15104 104.736 9.05078C104.595 8.88216 104.358 8.71582 104.025 8.55176C104.335 8.41048 104.536 8.28516 104.627 8.17578C104.782 7.99805 104.859 7.79753 104.859 7.57422V4.68945C104.704 4.33854 104.424 4.16309 104.019 4.16309C103.832 4.16309 103.688 4.20182 103.588 4.2793C103.538 4.21094 103.513 4.13346 103.513 4.04688C103.513 3.95573 103.54 3.87142 103.595 3.79395C103.654 3.71647 103.734 3.65039 103.834 3.5957C104.048 3.4681 104.292 3.4043 104.565 3.4043C104.843 3.4043 105.096 3.47949 105.324 3.62988C105.561 3.47949 105.832 3.4043 106.138 3.4043C106.448 3.4043 106.728 3.49544 106.979 3.67773C107.484 3.49544 108.086 3.4043 108.783 3.4043C109.225 3.4043 109.604 3.44987 109.918 3.54102L110.506 3.70508C110.579 3.72331 110.649 3.73242 110.718 3.73242C110.845 3.73242 110.909 3.64128 110.909 3.45898C110.909 3.41341 110.893 3.33594 110.861 3.22656C110.989 3.20378 111.151 3.19238 111.347 3.19238C111.543 3.19238 111.709 3.25846 111.846 3.39062C111.982 3.51823 112.051 3.70964 112.051 3.96484C112.051 4.21549 112.001 4.40918 111.9 4.5459C112.037 4.75553 112.105 5.00163 112.105 5.28418C112.105 5.56673 112.014 5.81055 111.832 6.01562C111.891 6.16146 111.921 6.30957 111.921 6.45996C111.921 6.60579 111.9 6.73568 111.859 6.84961C111.818 6.96354 111.766 7.05924 111.702 7.13672C111.575 7.29167 111.422 7.36914 111.244 7.36914C111.085 7.36914 110.932 7.3304 110.786 7.25293C110.845 7.12988 110.875 6.98405 110.875 6.81543C110.875 6.64225 110.866 6.4987 110.848 6.38477C110.834 6.26628 110.811 6.14323 110.779 6.01562C110.715 5.72852 110.608 5.44596 110.458 5.16797C110.157 4.60742 109.686 4.32715 109.043 4.32715C108.245 4.32715 107.689 4.53451 107.375 4.94922V8.10742C107.521 8.18945 107.655 8.23047 107.778 8.23047C107.901 8.23047 108.002 8.22819 108.079 8.22363C108.157 8.21908 108.234 8.21224 108.312 8.20312C108.507 8.18034 108.656 8.14388 108.756 8.09375C108.952 8.0026 109.05 7.79753 109.05 7.47852C109.05 7.15495 109.002 6.91341 108.906 6.75391C108.979 6.6901 109.093 6.6582 109.248 6.6582C109.553 6.6582 109.774 6.81543 109.911 7.12988C109.961 7.24382 109.986 7.36458 109.986 7.49219C109.986 7.61523 109.959 7.75423 109.904 7.90918C110.091 8.12337 110.185 8.37858 110.185 8.6748C110.185 8.96647 110.091 9.2194 109.904 9.43359C109.959 9.58854 109.986 9.72982 109.986 9.85742C109.986 9.98047 109.961 10.099 109.911 10.2129C109.861 10.3268 109.799 10.418 109.727 10.4863C109.585 10.6139 109.426 10.6777 109.248 10.6777C109.12 10.6777 109.007 10.6413 108.906 10.5684C109.002 10.4089 109.05 10.222 109.05 10.0078C109.05 9.58398 108.934 9.32194 108.701 9.22168C108.505 9.14421 108.271 9.10547 107.997 9.10547C107.728 9.10547 107.521 9.14648 107.375 9.22852V12.8379C107.548 13.1979 107.874 13.3779 108.353 13.3779C108.507 13.3779 108.635 13.3392 108.735 13.2617C108.785 13.3301 108.811 13.4098 108.811 13.501C108.811 13.5876 108.783 13.6696 108.729 13.7471C108.678 13.8245 108.605 13.8906 108.51 13.9453C108.305 14.0729 108.059 14.1367 107.771 14.1367C107.489 14.1367 107.215 14.0661 106.951 13.9248ZM105.516 12.1885C105.743 12.1019 105.871 11.8034 105.898 11.293C105.921 10.7826 105.933 10.0762 105.933 9.17383C105.933 8.27148 105.93 7.6722 105.926 7.37598C105.926 7.0752 105.924 6.83366 105.919 6.65137C105.905 6.11361 105.853 5.79004 105.762 5.68066C105.675 5.56673 105.593 5.49154 105.516 5.45508C105.516 7.04102 105.488 7.94336 105.434 8.16211C105.37 8.3444 105.215 8.47428 104.969 8.55176C105.242 8.64746 105.397 8.76367 105.434 8.90039C105.488 9.11914 105.516 9.91895 105.516 11.2998V12.1885ZM115.318 14.1367C115.018 14.1367 114.751 14.0638 114.519 13.918C114.286 14.0638 114.07 14.1367 113.869 14.1367C113.673 14.1367 113.511 14.1185 113.384 14.082C113.256 14.0501 113.145 14.0046 113.049 13.9453C112.853 13.8268 112.755 13.6787 112.755 13.501C112.755 13.4098 112.78 13.3301 112.83 13.2617C112.93 13.3392 113.058 13.3779 113.213 13.3779C113.618 13.3779 113.899 13.2048 114.054 12.8584V9.51562C114.054 9.30599 114.01 9.15104 113.924 9.05078C113.787 8.88216 113.552 8.71582 113.22 8.55176C113.53 8.41048 113.73 8.28516 113.821 8.17578C113.976 7.99805 114.054 7.79753 114.054 7.57422V4.68945C113.899 4.33854 113.618 4.16309 113.213 4.16309C113.058 4.16309 112.93 4.20182 112.83 4.2793C112.78 4.21094 112.755 4.13346 112.755 4.04688C112.755 3.95573 112.78 3.87142 112.83 3.79395C112.885 3.71647 112.958 3.65039 113.049 3.5957C113.258 3.4681 113.498 3.4043 113.767 3.4043C114.04 3.4043 114.291 3.47949 114.519 3.62988C114.756 3.47949 115.027 3.4043 115.332 3.4043C115.637 3.4043 115.915 3.49316 116.166 3.6709C116.649 3.49316 117.207 3.4043 117.841 3.4043C118.31 3.4043 118.711 3.44987 119.044 3.54102L119.652 3.70508C119.725 3.72331 119.796 3.73242 119.864 3.73242C119.992 3.73242 120.056 3.64128 120.056 3.45898C120.056 3.41341 120.04 3.33594 120.008 3.22656C120.135 3.20378 120.297 3.19238 120.493 3.19238C120.689 3.19238 120.855 3.25846 120.992 3.39062C121.129 3.51823 121.197 3.70508 121.197 3.95117C121.197 4.19271 121.154 4.37044 121.067 4.48438C121.19 4.66667 121.252 4.88997 121.252 5.1543C121.252 5.41406 121.163 5.63281 120.985 5.81055C121.04 5.94727 121.067 6.08171 121.067 6.21387C121.067 6.34147 121.045 6.45996 120.999 6.56934C120.958 6.67415 120.906 6.76302 120.842 6.83594C120.714 6.9681 120.584 7.03418 120.452 7.03418C120.261 7.03418 120.088 6.99316 119.933 6.91113C119.987 6.80176 120.015 6.63997 120.015 6.42578C120.015 5.92448 119.889 5.4847 119.639 5.10645C119.297 4.58691 118.784 4.32715 118.101 4.32715C117.754 4.32715 117.44 4.41146 117.157 4.58008C116.879 4.7487 116.683 4.99023 116.569 5.30469V7.9502C116.729 8.05046 116.877 8.10059 117.014 8.10059C117.155 8.10059 117.26 8.09831 117.328 8.09375C117.401 8.08919 117.474 8.08008 117.547 8.06641C117.734 8.03906 117.877 8.0026 117.978 7.95703C118.169 7.86589 118.265 7.64258 118.265 7.28711C118.265 7.08659 118.217 6.93164 118.121 6.82227C118.212 6.75846 118.326 6.72656 118.463 6.72656C118.768 6.72656 118.989 6.84961 119.126 7.0957C119.176 7.18229 119.201 7.27799 119.201 7.38281C119.201 7.48763 119.174 7.61751 119.119 7.77246C119.306 7.98665 119.399 8.24186 119.399 8.53809C119.399 8.82975 119.306 9.08268 119.119 9.29688C119.174 9.45182 119.201 9.5931 119.201 9.7207C119.201 9.84375 119.176 9.96224 119.126 10.0762C119.076 10.1901 119.014 10.2812 118.941 10.3496C118.8 10.4772 118.641 10.541 118.463 10.541C118.335 10.541 118.221 10.5046 118.121 10.4316C118.217 10.2721 118.265 10.0853 118.265 9.87109C118.265 9.44727 118.148 9.18522 117.916 9.08496C117.711 9.00293 117.476 8.96191 117.212 8.96191C116.948 8.96191 116.733 9.00977 116.569 9.10547V12.5234C116.834 12.9883 117.344 13.2207 118.101 13.2207C118.957 13.2207 119.541 12.9564 119.851 12.4277C120.211 11.8216 120.391 11.1722 120.391 10.4795C120.391 10.279 120.372 10.124 120.336 10.0146C120.45 9.90072 120.568 9.84375 120.691 9.84375C120.814 9.84375 120.908 9.86198 120.972 9.89844C121.035 9.93034 121.092 9.97135 121.143 10.0215C121.252 10.1445 121.307 10.2699 121.307 10.3975L121.266 10.7324C121.266 10.819 121.288 10.8896 121.334 10.9443C121.425 11.04 121.471 11.1312 121.471 11.2178C121.471 11.2998 121.443 11.4001 121.389 11.5186C121.493 11.5778 121.587 11.6667 121.669 11.7852C121.756 11.8991 121.799 12.0176 121.799 12.1406C121.799 12.4004 121.689 12.6328 121.471 12.8379C121.566 12.9746 121.614 13.1729 121.614 13.4326C121.614 13.6878 121.539 13.9043 121.389 14.082C121.243 14.2643 121.051 14.3555 120.814 14.3555C120.687 14.3555 120.555 14.3418 120.418 14.3145C120.436 14.2142 120.445 14.1139 120.445 14.0137C120.445 13.804 120.35 13.6992 120.158 13.6992C119.944 13.6992 119.73 13.7425 119.516 13.8291C119.01 14.0342 118.433 14.1367 117.786 14.1367C117.144 14.1367 116.597 14.0524 116.146 13.8838C115.909 14.0524 115.633 14.1367 115.318 14.1367ZM114.71 12.1885C114.938 12.1019 115.063 11.8034 115.086 11.293C115.113 10.7826 115.127 10.0762 115.127 9.17383C115.127 8.27148 115.125 7.6722 115.12 7.37598C115.12 7.0752 115.118 6.83366 115.113 6.65137C115.1 6.11361 115.047 5.79004 114.956 5.68066C114.869 5.56673 114.787 5.49154 114.71 5.45508C114.71 7.04102 114.683 7.94336 114.628 8.16211C114.564 8.3444 114.409 8.47428 114.163 8.55176C114.437 8.64746 114.591 8.76367 114.628 8.90039C114.683 9.11914 114.71 9.91895 114.71 11.2998V12.1885ZM116.433 12.1201C116.433 12.1338 116.435 12.1452 116.439 12.1543L116.433 12.1201ZM124.506 13.7334C124.141 14.098 123.795 14.2803 123.467 14.2803C123.257 14.2803 123.116 14.2028 123.043 14.0479C123.148 13.9202 123.2 13.7288 123.2 13.4736V13.3711C123.2 13.3438 123.198 13.3187 123.193 13.2959C122.965 13.0908 122.852 12.8493 122.852 12.5713C122.852 12.2887 122.984 12.0016 123.248 11.71C123.171 11.555 123.132 11.391 123.132 11.2178C123.132 11.04 123.157 10.876 123.207 10.7256C123.262 10.5706 123.335 10.4362 123.426 10.3223C123.617 10.0716 123.804 9.94629 123.986 9.94629C124.173 9.94629 124.305 10.0192 124.383 10.165C124.219 10.3382 124.137 10.6094 124.137 10.9785C124.137 11.3477 124.189 11.6689 124.294 11.9424C124.403 12.2158 124.556 12.4505 124.752 12.6465C125.171 13.0749 125.707 13.2891 126.358 13.2891C126.796 13.2891 127.167 13.1637 127.473 12.9131C127.801 12.6442 127.965 12.2773 127.965 11.8125C127.965 11.4844 127.887 11.2178 127.732 11.0127C127.491 10.6937 127.113 10.3564 126.598 10.001C126.201 9.72298 125.884 9.58398 125.647 9.58398C125.406 9.58398 125.139 9.68197 124.848 9.87793C124.925 9.64551 124.964 9.42904 124.964 9.22852C124.964 9.18294 124.921 9.1237 124.834 9.05078L124.581 8.8252C123.784 8.09147 123.312 7.41016 123.166 6.78125C123.116 6.5625 123.091 6.28906 123.091 5.96094C123.091 5.62826 123.171 5.29329 123.33 4.95605C123.494 4.61426 123.717 4.32487 124 4.08789C124.588 3.58659 125.335 3.33594 126.242 3.33594C126.794 3.33594 127.299 3.4248 127.76 3.60254C127.956 3.68001 128.179 3.71875 128.43 3.71875C128.535 3.71875 128.628 3.71419 128.71 3.70508C128.797 3.69141 128.872 3.64355 128.936 3.56152C128.995 3.47493 129.024 3.39746 129.024 3.3291C129.024 3.26074 129.015 3.20378 128.997 3.1582C129.029 3.14453 129.072 3.1377 129.127 3.1377C129.186 3.1377 129.25 3.1582 129.318 3.19922C129.387 3.23568 129.448 3.28809 129.503 3.35645C129.626 3.51139 129.688 3.68685 129.688 3.88281C129.688 4.07422 129.633 4.22005 129.523 4.32031C129.678 4.45703 129.756 4.66895 129.756 4.95605C129.756 5.23861 129.66 5.47559 129.469 5.66699C129.505 5.79004 129.523 5.90169 129.523 6.00195C129.523 6.09766 129.505 6.19108 129.469 6.28223C129.437 6.36882 129.391 6.44401 129.332 6.50781C129.2 6.64909 129.075 6.71973 128.956 6.71973C128.769 6.71973 128.612 6.68783 128.484 6.62402C128.562 6.44173 128.601 6.24577 128.601 6.03613C128.601 5.8265 128.553 5.6123 128.457 5.39355C128.366 5.17025 128.236 4.97656 128.067 4.8125C127.712 4.47526 127.247 4.30664 126.673 4.30664C126.308 4.30664 126.01 4.41829 125.777 4.6416C125.559 4.85124 125.449 5.10417 125.449 5.40039C125.449 5.6237 125.504 5.81055 125.613 5.96094C125.805 6.2207 126.108 6.48958 126.522 6.76758L126.851 6.98633C127.033 7.10026 127.156 7.15723 127.22 7.15723C127.284 7.15723 127.347 7.15039 127.411 7.13672C127.475 7.12305 127.546 7.10482 127.623 7.08203C127.787 7.02734 127.947 6.94987 128.102 6.84961L128.013 7.23242C127.985 7.36003 127.972 7.45345 127.972 7.5127C127.972 7.6084 128.02 7.69499 128.115 7.77246C128.967 8.51074 129.537 9.12826 129.824 9.625C130.075 10.0579 130.2 10.5251 130.2 11.0264C130.2 11.5277 130.118 11.9583 129.954 12.3184C129.79 12.6784 129.551 12.9974 129.236 13.2754C128.544 13.8952 127.644 14.2051 126.536 14.2051C125.757 14.2051 125.08 14.0479 124.506 13.7334ZM124.041 5.45508C123.868 5.52799 123.781 5.71712 123.781 6.02246C123.781 6.64681 124.198 7.33268 125.032 8.08008L125.442 8.44922C125.584 8.57682 125.645 8.6748 125.627 8.74316C125.613 8.81152 125.6 8.86621 125.586 8.90723C125.577 8.94824 125.565 8.98698 125.552 9.02344C125.538 9.0599 125.529 9.08724 125.524 9.10547C125.684 9.00977 125.814 8.96191 125.914 8.96191C126.115 8.96191 126.304 9.0166 126.481 9.12598C127.361 9.67285 127.958 10.1605 128.272 10.5889C128.5 10.9033 128.619 11.2952 128.628 11.7646C128.628 11.9333 128.617 12.0745 128.594 12.1885C128.835 12.0335 128.956 11.7874 128.956 11.4502C128.956 11.1221 128.91 10.8691 128.819 10.6914C128.733 10.5137 128.63 10.3564 128.512 10.2197C128.393 10.0785 128.238 9.92578 128.047 9.76172C127.86 9.59766 127.628 9.41992 127.35 9.22852L126.379 8.56543C125.581 8.04134 124.975 7.48763 124.561 6.9043C124.196 6.38932 124.023 5.90625 124.041 5.45508ZM136.64 13.9111C136.403 14.0615 136.138 14.1367 135.847 14.1367C135.56 14.1367 135.293 14.0615 135.047 13.9111C134.796 14.0615 134.566 14.1367 134.356 14.1367C134.147 14.1367 133.978 14.1185 133.851 14.082C133.723 14.0501 133.611 14.0046 133.516 13.9453C133.32 13.8268 133.222 13.6787 133.222 13.501C133.222 13.4098 133.247 13.3301 133.297 13.2617C133.397 13.3392 133.529 13.3779 133.693 13.3779C133.862 13.3779 134.031 13.3346 134.199 13.248C134.372 13.1615 134.502 13.027 134.589 12.8447V9.51562C134.589 9.30599 134.546 9.15104 134.459 9.05078C134.322 8.88216 134.088 8.71582 133.755 8.55176C134.065 8.41048 134.265 8.28516 134.356 8.17578C134.511 7.99805 134.589 7.79753 134.589 7.57422V4.40234C134.438 4.34766 134.258 4.32031 134.049 4.32031C133.844 4.32031 133.627 4.375 133.399 4.48438C133.172 4.59375 132.966 4.75326 132.784 4.96289C132.379 5.43685 132.176 6.05664 132.176 6.82227C132.176 7.26432 132.249 7.59017 132.395 7.7998C132.34 7.91374 132.237 7.9707 132.087 7.9707C131.937 7.9707 131.802 7.93652 131.684 7.86816C131.565 7.7998 131.463 7.70638 131.376 7.58789C131.198 7.35091 131.109 7.0957 131.109 6.82227C131.109 6.54883 131.16 6.31641 131.26 6.125C131.091 5.92448 131.007 5.69889 131.007 5.44824C131.007 5.19303 131.075 4.9834 131.212 4.81934C131.021 4.61426 130.925 4.33854 130.925 3.99219C130.925 3.59115 131.109 3.32227 131.479 3.18555C131.588 3.14453 131.684 3.12402 131.766 3.12402C131.921 3.12402 132.037 3.1582 132.114 3.22656C132.082 3.33594 132.066 3.41341 132.066 3.45898C132.066 3.64128 132.13 3.73242 132.258 3.73242C132.326 3.73242 132.397 3.72331 132.47 3.70508L132.777 3.61621C133.311 3.47493 133.755 3.4043 134.11 3.4043C134.466 3.4043 134.778 3.48177 135.047 3.63672C135.279 3.48177 135.544 3.4043 135.84 3.4043C136.136 3.4043 136.405 3.48177 136.646 3.63672C136.906 3.48177 137.175 3.4043 137.453 3.4043C137.895 3.4043 138.283 3.44987 138.615 3.54102L139.224 3.70508C139.297 3.72331 139.367 3.73242 139.436 3.73242C139.563 3.73242 139.627 3.64128 139.627 3.45898C139.627 3.41341 139.611 3.33594 139.579 3.22656C139.657 3.1582 139.755 3.12402 139.873 3.12402C139.992 3.12402 140.105 3.14453 140.215 3.18555C140.324 3.22656 140.42 3.28581 140.502 3.36328C140.68 3.52279 140.769 3.75293 140.769 4.05371C140.769 4.34993 140.673 4.60514 140.481 4.81934C140.618 4.9834 140.687 5.19076 140.687 5.44141C140.687 5.69206 140.6 5.91992 140.427 6.125C140.532 6.31185 140.584 6.4987 140.584 6.68555C140.584 6.8724 140.561 7.04102 140.516 7.19141C140.47 7.3418 140.404 7.47396 140.317 7.58789C140.131 7.8431 139.896 7.9707 139.613 7.9707C139.458 7.9707 139.354 7.91374 139.299 7.7998C139.445 7.59017 139.518 7.27572 139.518 6.85645C139.518 6.43262 139.461 6.06576 139.347 5.75586C139.237 5.44141 139.091 5.17708 138.909 4.96289C138.54 4.53451 138.105 4.32031 137.604 4.32031C137.412 4.32031 137.246 4.34766 137.104 4.40234V7.57422C137.104 7.79753 137.152 7.96387 137.248 8.07324C137.398 8.25098 137.629 8.41048 137.938 8.55176C137.606 8.71582 137.394 8.85026 137.303 8.95508C137.171 9.11914 137.104 9.30599 137.104 9.51562V12.8447C137.187 13.027 137.312 13.1615 137.48 13.248C137.654 13.3346 137.825 13.3779 137.993 13.3779C138.162 13.3779 138.296 13.3392 138.396 13.2617C138.447 13.3301 138.472 13.4098 138.472 13.501C138.472 13.5876 138.444 13.6696 138.39 13.7471C138.34 13.8245 138.269 13.8906 138.178 13.9453C137.968 14.0729 137.722 14.1367 137.439 14.1367C137.161 14.1367 136.895 14.0615 136.64 13.9111ZM135.245 12.1885C135.473 12.1019 135.598 11.8034 135.621 11.293C135.648 10.7826 135.662 10.0762 135.662 9.17383C135.662 8.27148 135.66 7.6722 135.655 7.37598C135.655 7.0752 135.653 6.83366 135.648 6.65137C135.635 6.11361 135.582 5.79004 135.491 5.68066C135.405 5.56673 135.323 5.49154 135.245 5.45508C135.245 7.04102 135.218 7.94336 135.163 8.16211C135.099 8.3444 134.944 8.47428 134.698 8.55176C134.972 8.64746 135.127 8.76367 135.163 8.90039C135.218 9.11914 135.245 9.91895 135.245 11.2998V12.1885ZM141.821 13.9521C141.653 14.0752 141.459 14.1367 141.24 14.1367C141.026 14.1367 140.855 14.082 140.728 13.9727C140.595 13.8587 140.529 13.7288 140.529 13.583C140.529 13.4372 140.552 13.3301 140.598 13.2617C140.73 13.3392 140.892 13.3779 141.083 13.3779C141.279 13.3779 141.425 13.3529 141.521 13.3027C141.621 13.248 141.716 13.1751 141.808 13.084L142.778 10.2061L142.915 9.73438C142.956 9.5931 142.977 9.46322 142.977 9.34473C142.977 8.93001 142.781 8.66569 142.389 8.55176C142.749 8.41504 143.002 8.26693 143.147 8.10742C143.375 7.85677 143.555 7.52637 143.688 7.11621L144.439 4.59375C144.294 4.39779 144.12 4.2998 143.92 4.2998C143.719 4.2998 143.533 4.3431 143.359 4.42969C143.314 4.34766 143.291 4.25651 143.291 4.15625C143.291 4.05143 143.312 3.95345 143.353 3.8623C143.398 3.77116 143.46 3.69141 143.537 3.62305C143.71 3.47721 143.956 3.4043 144.275 3.4043C144.594 3.4043 144.866 3.5 145.089 3.69141C145.317 3.5 145.599 3.4043 145.937 3.4043C146.278 3.4043 146.549 3.49544 146.75 3.67773C147.042 3.49544 147.338 3.4043 147.639 3.4043C147.939 3.4043 148.172 3.46126 148.336 3.5752C148.505 3.68913 148.589 3.84408 148.589 4.04004C148.589 4.13118 148.562 4.21094 148.507 4.2793C148.402 4.20182 148.279 4.16309 148.138 4.16309C147.832 4.16309 147.634 4.37044 147.543 4.78516L148.418 7.58105C148.527 7.93197 148.801 8.2054 149.238 8.40137C149.361 8.45605 149.487 8.50618 149.614 8.55176C149.159 8.70215 148.931 8.92773 148.931 9.22852C148.931 9.34245 148.949 9.44271 148.985 9.5293L150.291 13.0293C150.492 13.2389 150.694 13.3438 150.899 13.3438C151.104 13.3438 151.264 13.305 151.378 13.2275C151.428 13.264 151.453 13.3324 151.453 13.4326C151.453 13.5329 151.437 13.6263 151.405 13.7129C151.373 13.7949 151.323 13.8678 151.255 13.9316C151.109 14.0684 150.895 14.1367 150.612 14.1367C150.33 14.1367 150.084 14.0592 149.874 13.9043C149.637 14.0592 149.368 14.1367 149.067 14.1367C148.771 14.1367 148.516 14.0615 148.302 13.9111C148.097 14.0615 147.855 14.1367 147.577 14.1367C147.299 14.1367 147.069 14.0798 146.887 13.9658C146.704 13.8473 146.609 13.681 146.6 13.4668C146.6 13.3392 146.625 13.2594 146.675 13.2275C146.798 13.305 146.923 13.3438 147.051 13.3438C147.32 13.3438 147.509 13.2891 147.618 13.1797L147.099 11.4365H143.4L142.949 12.9473C143.136 13.2344 143.362 13.3779 143.626 13.3779C143.895 13.3779 144.095 13.3392 144.228 13.2617C144.278 13.3438 144.303 13.4577 144.303 13.6035C144.303 13.7448 144.232 13.8701 144.091 13.9795C143.95 14.0843 143.767 14.1367 143.544 14.1367C143.321 14.1367 143.116 14.0798 142.929 13.9658C142.765 14.0798 142.576 14.1367 142.361 14.1367C142.152 14.1367 141.972 14.0752 141.821 13.9521ZM146.818 10.5137L145.232 5.24316L143.674 10.5137H146.818ZM148.124 12.1885C148.206 12.1885 148.247 12.0973 148.247 11.915C148.247 11.596 148.199 11.2861 148.104 10.9854L147.844 10.1855C147.661 9.58398 147.57 9.20573 147.57 9.05078C147.566 8.79557 147.677 8.62695 147.905 8.54492C147.591 8.48112 147.399 8.38314 147.331 8.25098C147.299 8.19629 147.272 8.15299 147.249 8.12109C147.231 8.08919 147.21 8.05273 147.188 8.01172C147.169 7.96615 147.146 7.90918 147.119 7.84082C147.092 7.77246 147.055 7.67448 147.01 7.54688L146.586 6.26855C146.486 5.94954 146.338 5.70801 146.142 5.54395C146.082 5.49382 146.028 5.46419 145.978 5.45508C146.283 6.55794 146.483 7.26432 146.579 7.57422C147.24 9.60677 147.636 10.8122 147.769 11.1904L148.124 12.1885ZM150.141 12.8037L150.154 12.8447L150.141 12.8037ZM157.469 14.1367C157.168 14.1367 156.901 14.0638 156.669 13.918C156.437 14.0638 156.22 14.1367 156.02 14.1367C155.824 14.1367 155.662 14.1185 155.534 14.082C155.407 14.0501 155.295 14.0046 155.199 13.9453C155.003 13.8268 154.905 13.6787 154.905 13.501C154.905 13.4098 154.93 13.3301 154.98 13.2617C155.081 13.3392 155.208 13.3779 155.363 13.3779C155.769 13.3779 156.049 13.2048 156.204 12.8584V9.51562C156.204 9.30599 156.161 9.15104 156.074 9.05078C155.938 8.88216 155.703 8.71582 155.37 8.55176C155.68 8.41048 155.881 8.28516 155.972 8.17578C156.127 7.99805 156.204 7.79753 156.204 7.57422V4.68945C156.049 4.33854 155.769 4.16309 155.363 4.16309C155.208 4.16309 155.081 4.20182 154.98 4.2793C154.93 4.21094 154.905 4.13346 154.905 4.04688C154.905 3.95573 154.93 3.87142 154.98 3.79395C155.035 3.71647 155.108 3.65039 155.199 3.5957C155.409 3.4681 155.648 3.4043 155.917 3.4043C156.19 3.4043 156.441 3.47949 156.669 3.62988C156.906 3.47949 157.157 3.4043 157.421 3.4043C157.69 3.4043 157.938 3.46126 158.166 3.5752C158.704 3.41569 159.203 3.33594 159.663 3.33594C160.123 3.33594 160.531 3.361 160.887 3.41113C161.242 3.46126 161.582 3.55013 161.905 3.67773C162.229 3.80078 162.532 3.96712 162.814 4.17676C163.102 4.38639 163.357 4.64844 163.58 4.96289C164.054 5.6237 164.357 6.4987 164.489 7.58789C164.517 7.85677 164.574 8.0459 164.66 8.15527C164.806 8.33301 165.004 8.46517 165.255 8.55176C164.991 8.65202 164.817 8.75456 164.735 8.85938C164.599 9.03255 164.517 9.2513 164.489 9.51562C164.339 11.0286 163.831 12.1953 162.965 13.0156C162.131 13.8086 161.049 14.2051 159.718 14.2051C159.185 14.2051 158.706 14.123 158.282 13.959C158.077 14.0775 157.806 14.1367 157.469 14.1367ZM158.72 12.9268C158.938 13.1729 159.228 13.2959 159.588 13.2959C159.952 13.2959 160.267 13.2253 160.531 13.084C160.8 12.9382 161.026 12.7148 161.208 12.4141C161.577 11.7988 161.762 10.8327 161.762 9.51562C161.762 9.22852 161.716 9.03255 161.625 8.92773C161.502 8.7819 161.299 8.65658 161.017 8.55176C161.295 8.45605 161.475 8.36035 161.557 8.26465C161.693 8.10059 161.762 7.89323 161.762 7.64258C161.762 7.38737 161.743 7.13444 161.707 6.88379C161.671 6.63314 161.611 6.38477 161.529 6.13867C161.452 5.89258 161.352 5.65788 161.229 5.43457C161.11 5.20671 160.966 5.00618 160.798 4.83301C160.429 4.45475 159.993 4.26562 159.492 4.26562C159.337 4.26562 159.187 4.27018 159.041 4.2793C158.895 4.28385 158.788 4.32715 158.72 4.40918V12.9268ZM162.117 5.45508C162.459 6.40755 162.63 7.22331 162.63 7.90234C162.63 8.13477 162.609 8.27148 162.568 8.3125C162.532 8.35352 162.491 8.38997 162.445 8.42188C162.363 8.47656 162.274 8.51986 162.179 8.55176C162.452 8.6748 162.596 8.79329 162.609 8.90723C162.618 8.95736 162.623 9.00749 162.623 9.05762V9.22852C162.623 9.84375 162.559 10.4408 162.432 11.0195C162.304 11.5938 162.208 11.9834 162.145 12.1885C162.35 12.1292 162.498 11.9948 162.589 11.7852C162.685 11.571 162.764 11.3431 162.828 11.1016C162.896 10.8555 162.951 10.5957 162.992 10.3223C163.083 9.76172 163.129 9.17611 163.129 8.56543C163.129 7.47168 162.967 6.58984 162.644 5.91992C162.502 5.6556 162.327 5.50065 162.117 5.45508ZM156.86 12.1885C157.088 12.1019 157.214 11.8034 157.236 11.293C157.264 10.7826 157.277 10.0762 157.277 9.17383C157.277 8.27148 157.275 7.6722 157.271 7.37598C157.271 7.0752 157.268 6.83366 157.264 6.65137C157.25 6.11361 157.198 5.79004 157.106 5.68066C157.02 5.56673 156.938 5.49154 156.86 5.45508C156.86 7.04102 156.833 7.94336 156.778 8.16211C156.715 8.3444 156.56 8.47428 156.313 8.55176C156.587 8.64746 156.742 8.76367 156.778 8.90039C156.833 9.11914 156.86 9.91895 156.86 11.2998V12.1885ZM168.338 14.1367C168.037 14.1367 167.771 14.0638 167.538 13.918C167.306 14.0638 167.089 14.1367 166.889 14.1367C166.693 14.1367 166.531 14.1185 166.403 14.082C166.276 14.0501 166.164 14.0046 166.068 13.9453C165.872 13.8268 165.774 13.6787 165.774 13.501C165.774 13.4098 165.799 13.3301 165.85 13.2617C165.95 13.3392 166.077 13.3779 166.232 13.3779C166.638 13.3779 166.918 13.2048 167.073 12.8584V9.51562C167.073 9.30599 167.03 9.15104 166.943 9.05078C166.807 8.88216 166.572 8.71582 166.239 8.55176C166.549 8.41048 166.75 8.28516 166.841 8.17578C166.996 7.99805 167.073 7.79753 167.073 7.57422V4.68945C166.918 4.33854 166.638 4.16309 166.232 4.16309C166.077 4.16309 165.95 4.20182 165.85 4.2793C165.799 4.21094 165.774 4.13346 165.774 4.04688C165.774 3.95573 165.799 3.87142 165.85 3.79395C165.904 3.71647 165.977 3.65039 166.068 3.5957C166.278 3.4681 166.517 3.4043 166.786 3.4043C167.06 3.4043 167.31 3.47949 167.538 3.62988C167.775 3.47949 168.046 3.4043 168.352 3.4043C168.657 3.4043 168.935 3.49316 169.186 3.6709C169.669 3.49316 170.227 3.4043 170.86 3.4043C171.33 3.4043 171.731 3.44987 172.063 3.54102L172.672 3.70508C172.745 3.72331 172.815 3.73242 172.884 3.73242C173.011 3.73242 173.075 3.64128 173.075 3.45898C173.075 3.41341 173.059 3.33594 173.027 3.22656C173.155 3.20378 173.317 3.19238 173.513 3.19238C173.709 3.19238 173.875 3.25846 174.012 3.39062C174.148 3.51823 174.217 3.70508 174.217 3.95117C174.217 4.19271 174.174 4.37044 174.087 4.48438C174.21 4.66667 174.271 4.88997 174.271 5.1543C174.271 5.41406 174.183 5.63281 174.005 5.81055C174.06 5.94727 174.087 6.08171 174.087 6.21387C174.087 6.34147 174.064 6.45996 174.019 6.56934C173.978 6.67415 173.925 6.76302 173.861 6.83594C173.734 6.9681 173.604 7.03418 173.472 7.03418C173.28 7.03418 173.107 6.99316 172.952 6.91113C173.007 6.80176 173.034 6.63997 173.034 6.42578C173.034 5.92448 172.909 5.4847 172.658 5.10645C172.316 4.58691 171.804 4.32715 171.12 4.32715C170.774 4.32715 170.459 4.41146 170.177 4.58008C169.899 4.7487 169.703 4.99023 169.589 5.30469V7.9502C169.748 8.05046 169.896 8.10059 170.033 8.10059C170.174 8.10059 170.279 8.09831 170.348 8.09375C170.421 8.08919 170.493 8.08008 170.566 8.06641C170.753 8.03906 170.897 8.0026 170.997 7.95703C171.188 7.86589 171.284 7.64258 171.284 7.28711C171.284 7.08659 171.236 6.93164 171.141 6.82227C171.232 6.75846 171.346 6.72656 171.482 6.72656C171.788 6.72656 172.009 6.84961 172.146 7.0957C172.196 7.18229 172.221 7.27799 172.221 7.38281C172.221 7.48763 172.193 7.61751 172.139 7.77246C172.326 7.98665 172.419 8.24186 172.419 8.53809C172.419 8.82975 172.326 9.08268 172.139 9.29688C172.193 9.45182 172.221 9.5931 172.221 9.7207C172.221 9.84375 172.196 9.96224 172.146 10.0762C172.095 10.1901 172.034 10.2812 171.961 10.3496C171.82 10.4772 171.66 10.541 171.482 10.541C171.355 10.541 171.241 10.5046 171.141 10.4316C171.236 10.2721 171.284 10.0853 171.284 9.87109C171.284 9.44727 171.168 9.18522 170.936 9.08496C170.73 9.00293 170.496 8.96191 170.231 8.96191C169.967 8.96191 169.753 9.00977 169.589 9.10547V12.5234C169.853 12.9883 170.364 13.2207 171.12 13.2207C171.977 13.2207 172.56 12.9564 172.87 12.4277C173.23 11.8216 173.41 11.1722 173.41 10.4795C173.41 10.279 173.392 10.124 173.355 10.0146C173.469 9.90072 173.588 9.84375 173.711 9.84375C173.834 9.84375 173.927 9.86198 173.991 9.89844C174.055 9.93034 174.112 9.97135 174.162 10.0215C174.271 10.1445 174.326 10.2699 174.326 10.3975L174.285 10.7324C174.285 10.819 174.308 10.8896 174.354 10.9443C174.445 11.04 174.49 11.1312 174.49 11.2178C174.49 11.2998 174.463 11.4001 174.408 11.5186C174.513 11.5778 174.606 11.6667 174.688 11.7852C174.775 11.8991 174.818 12.0176 174.818 12.1406C174.818 12.4004 174.709 12.6328 174.49 12.8379C174.586 12.9746 174.634 13.1729 174.634 13.4326C174.634 13.6878 174.559 13.9043 174.408 14.082C174.262 14.2643 174.071 14.3555 173.834 14.3555C173.706 14.3555 173.574 14.3418 173.438 14.3145C173.456 14.2142 173.465 14.1139 173.465 14.0137C173.465 13.804 173.369 13.6992 173.178 13.6992C172.964 13.6992 172.749 13.7425 172.535 13.8291C172.029 14.0342 171.453 14.1367 170.806 14.1367C170.163 14.1367 169.616 14.0524 169.165 13.8838C168.928 14.0524 168.652 14.1367 168.338 14.1367ZM167.729 12.1885C167.957 12.1019 168.083 11.8034 168.105 11.293C168.133 10.7826 168.146 10.0762 168.146 9.17383C168.146 8.27148 168.144 7.6722 168.14 7.37598C168.14 7.0752 168.137 6.83366 168.133 6.65137C168.119 6.11361 168.067 5.79004 167.976 5.68066C167.889 5.56673 167.807 5.49154 167.729 5.45508C167.729 7.04102 167.702 7.94336 167.647 8.16211C167.584 8.3444 167.429 8.47428 167.183 8.55176C167.456 8.64746 167.611 8.76367 167.647 8.90039C167.702 9.11914 167.729 9.91895 167.729 11.2998V12.1885ZM169.452 12.1201C169.452 12.1338 169.454 12.1452 169.459 12.1543L169.452 12.1201Z" fill="#F2F2F2"/>
<path d="M8.0918 51.877C7.6582 52.1934 7.16016 52.3516 6.59766 52.3516C6.04688 52.3516 5.60742 52.2109 5.2793 51.9297C4.93945 51.6367 4.76953 51.3027 4.76953 50.9277C4.76953 50.5527 4.82812 50.2773 4.94531 50.1016C5.28516 50.3008 5.70117 50.4004 6.19336 50.4004C6.69727 50.4004 7.07227 50.3359 7.31836 50.207C7.57617 50.0664 7.82227 49.8789 8.05664 49.6445L10.5527 42.2441L10.9043 41.0312C11.0098 40.668 11.0625 40.334 11.0625 40.0293C11.0625 38.9629 10.5586 38.2832 9.55078 37.9902C10.4766 37.6387 11.127 37.2578 11.502 36.8477C12.0879 36.2031 12.5508 35.3535 12.8906 34.2988L14.8242 27.8125C14.4492 27.3086 14.0039 27.0566 13.4883 27.0566C12.9727 27.0566 12.4922 27.168 12.0469 27.3906C11.9297 27.1797 11.8711 26.9453 11.8711 26.6875C11.8711 26.418 11.9238 26.166 12.0293 25.9316C12.1465 25.6973 12.3047 25.4922 12.5039 25.3164C12.9492 24.9414 13.582 24.7539 14.4023 24.7539C15.2227 24.7539 15.9199 25 16.4941 25.4922C17.0801 25 17.8066 24.7539 18.6738 24.7539C19.5527 24.7539 20.25 24.9883 20.7656 25.457C21.5156 24.9883 22.2773 24.7539 23.0508 24.7539C23.8242 24.7539 24.4219 24.9004 24.8438 25.1934C25.2773 25.4863 25.4941 25.8848 25.4941 26.3887C25.4941 26.623 25.4238 26.8281 25.2832 27.0039C25.0137 26.8047 24.6973 26.7051 24.334 26.7051C23.5488 26.7051 23.0391 27.2383 22.8047 28.3047L25.0547 35.4941C25.3359 36.3965 26.0391 37.0996 27.1641 37.6035C27.4805 37.7441 27.8027 37.873 28.1309 37.9902C26.959 38.377 26.373 38.957 26.373 39.7305C26.373 40.0234 26.4199 40.2812 26.5137 40.5039L29.8711 49.5039C30.3867 50.043 30.9082 50.3125 31.4355 50.3125C31.9629 50.3125 32.373 50.2129 32.666 50.0137C32.7949 50.1074 32.8594 50.2832 32.8594 50.541C32.8594 50.7988 32.8184 51.0391 32.7363 51.2617C32.6543 51.4727 32.5254 51.6602 32.3496 51.8242C31.9746 52.1758 31.4238 52.3516 30.6973 52.3516C29.9707 52.3516 29.3379 52.1523 28.7988 51.7539C28.1895 52.1523 27.498 52.3516 26.7246 52.3516C25.9629 52.3516 25.3066 52.1582 24.7559 51.7715C24.2285 52.1582 23.6074 52.3516 22.8926 52.3516C22.1777 52.3516 21.5859 52.2051 21.1172 51.9121C20.6484 51.6074 20.4023 51.1797 20.3789 50.6289C20.3789 50.3008 20.4434 50.0957 20.5723 50.0137C20.8887 50.2129 21.2109 50.3125 21.5391 50.3125C22.2305 50.3125 22.7168 50.1719 22.998 49.8906L21.6621 45.4082H12.1523L10.9922 49.293C11.4727 50.0312 12.0527 50.4004 12.7324 50.4004C13.4238 50.4004 13.9395 50.3008 14.2793 50.1016C14.4082 50.3125 14.4727 50.6055 14.4727 50.9805C14.4727 51.3438 14.291 51.666 13.9277 51.9473C13.5645 52.2168 13.0957 52.3516 12.5215 52.3516C11.9473 52.3516 11.4199 52.2051 10.9395 51.9121C10.5176 52.2051 10.0312 52.3516 9.48047 52.3516C8.94141 52.3516 8.47852 52.1934 8.0918 51.877ZM20.9414 43.0352L16.8633 29.4824L12.8555 43.0352H20.9414ZM24.2988 47.3418C24.5098 47.3418 24.6152 47.1074 24.6152 46.6387C24.6152 45.8184 24.4922 45.0215 24.2461 44.248L23.5781 42.1914C23.1094 40.6445 22.875 39.6719 22.875 39.2734C22.8633 38.6172 23.1504 38.1836 23.7363 37.9727C22.9277 37.8086 22.4355 37.5566 22.2598 37.2168C22.1777 37.0762 22.1074 36.9648 22.0488 36.8828C22.002 36.8008 21.9492 36.707 21.8906 36.6016C21.8438 36.4844 21.7852 36.3379 21.7148 36.1621C21.6445 35.9863 21.5508 35.7344 21.4336 35.4062L20.3438 32.1191C20.0859 31.2988 19.7051 30.6777 19.2012 30.2559C19.0488 30.127 18.9082 30.0508 18.7793 30.0273C19.5645 32.8633 20.0801 34.6797 20.3262 35.4766C22.0254 40.7031 23.0449 43.8027 23.3848 44.7754L24.2988 47.3418ZM29.4844 48.9238L29.5195 49.0293L29.4844 48.9238ZM36.0938 51.877C35.6602 52.1934 35.1621 52.3516 34.5996 52.3516C34.0488 52.3516 33.6035 52.2109 33.2637 51.9297C32.9355 51.6367 32.7715 51.3027 32.7715 50.9277C32.7715 50.5527 32.8301 50.2773 32.9473 50.1016C33.2871 50.3008 33.8203 50.4004 34.5469 50.4004C35.2852 50.4004 35.8945 49.9023 36.375 48.9062V40.4688C36.375 39.918 36.2578 39.5078 36.0234 39.2383C35.6719 38.8164 35.0742 38.4004 34.2305 37.9902C35.0859 37.5801 35.625 37.2402 35.8477 36.9707C36.1992 36.5254 36.375 36.0273 36.375 35.4766V28.0586C35.9766 27.1562 35.2559 26.7051 34.2129 26.7051C33.8145 26.7051 33.4863 26.8047 33.2285 27.0039C33.0996 26.8281 33.0352 26.623 33.0352 26.3887C33.0352 26.1543 33.0938 25.9375 33.2109 25.7383C33.3281 25.5391 33.4805 25.3633 33.668 25.2109C34.0781 24.9062 34.6289 24.7539 35.3203 24.7539C36.0234 24.7539 36.6211 24.9473 37.1133 25.334C37.4414 24.9473 37.8926 24.7539 38.4668 24.7539C39.041 24.7539 39.5039 24.9531 39.8555 25.3516C40.1953 24.9531 40.541 24.7539 40.8926 24.7539C41.2559 24.7539 41.5254 24.7891 41.7012 24.8594C41.8887 24.9297 42.0469 25.0234 42.1758 25.1406C42.3633 25.293 42.5742 25.5918 42.8086 26.0371L53.707 45.6719V40.3105C53.707 39.7949 53.5957 39.4141 53.373 39.168C53.0332 38.8047 52.4297 38.4121 51.5625 37.9902C52.3711 37.5918 52.8926 37.2695 53.127 37.0234C53.5137 36.6133 53.707 36.1562 53.707 35.6523V28.2871C53.4375 27.7949 53.1035 27.4082 52.7051 27.127C52.3184 26.8457 51.873 26.7051 51.3691 26.7051C50.877 26.7051 50.4609 26.8047 50.1211 27.0039C49.9922 26.793 49.9277 26.5059 49.9277 26.1426C49.9277 25.7676 50.1094 25.4453 50.4727 25.1758C50.8359 24.8945 51.3105 24.7539 51.8965 24.7539C52.4824 24.7539 53.0039 24.9062 53.4609 25.2109C53.8711 24.9062 54.3398 24.7539 54.8672 24.7539C55.4062 24.7539 55.8809 24.9121 56.291 25.2285C56.748 24.9121 57.252 24.7539 57.8027 24.7539C58.3535 24.7539 58.793 24.9004 59.1211 25.1934C59.4609 25.4746 59.6309 25.8027 59.6309 26.1777C59.6309 26.5527 59.5723 26.8281 59.4551 27.0039C59.1152 26.8047 58.5703 26.7051 57.8203 26.7051C57.0703 26.7051 56.4727 27.209 56.0273 28.2168V35.6523C56.0273 36.1562 56.1328 36.5254 56.3438 36.7598C56.6953 37.1465 57.3047 37.5566 58.1719 37.9902C57.2227 38.5059 56.6543 38.8633 56.4668 39.0625C56.1738 39.3789 56.0273 39.7949 56.0273 40.3105L56.3438 49.2402C56.7656 50.0137 57.4277 50.4004 58.3301 50.4004C58.7285 50.4004 59.0566 50.3008 59.3145 50.1016C59.4434 50.2773 59.5078 50.4824 59.5078 50.7168C59.5078 50.9512 59.4492 51.168 59.332 51.3672C59.2148 51.5664 59.0625 51.7422 58.875 51.8945C58.4648 52.1992 57.9668 52.3516 57.3809 52.3516C56.7949 52.3516 56.2676 52.2344 55.7988 52C54.873 52.5273 53.9297 52.4863 52.9688 51.877C52.5938 52.1934 52.2363 52.3516 51.8965 52.3516C51.5566 52.3516 51.3047 52.3223 51.1406 52.2637C50.9766 52.2051 50.8242 52.0996 50.6836 51.9473C50.4609 51.7246 50.1152 51.168 49.6465 50.2773L38.8359 31.6445V48.9062C39.3164 49.9023 39.9258 50.4004 40.6641 50.4004C41.4023 50.4004 41.9414 50.3008 42.2812 50.1016C42.4102 50.3125 42.4746 50.6055 42.4746 50.9805C42.4746 51.3438 42.293 51.666 41.9297 51.9473C41.5664 52.2168 41.0977 52.3516 40.5234 52.3516C39.9492 52.3516 39.4219 52.2051 38.9414 51.9121C38.5195 52.2051 38.0332 52.3516 37.4824 52.3516C36.9434 52.3516 36.4805 52.1934 36.0938 51.877ZM49.8398 47.3418C49.9219 47.2363 49.9629 47.0723 49.9629 46.8496C49.9629 46.6152 49.9277 46.3574 49.8574 46.0762C49.7988 45.7832 49.7109 45.4727 49.5938 45.1445C49.3477 44.4883 49.0254 43.7852 48.627 43.0352L41.1738 30.0273C41.0918 30.1562 41.0508 30.3906 41.0508 30.7305C41.0508 31.457 41.5488 32.7285 42.5449 34.5449L49.8398 47.3418ZM70.7051 51.7891C70.1074 52.1641 69.4277 52.3516 68.666 52.3516C67.9043 52.3516 67.2246 52.1641 66.627 51.7891C66.0293 52.1641 65.4727 52.3516 64.957 52.3516C64.4531 52.3516 64.0371 52.3047 63.709 52.2109C63.3809 52.1289 63.0938 52.0117 62.8477 51.8594C62.3438 51.5547 62.0918 51.1738 62.0918 50.7168C62.0918 50.4824 62.1562 50.2773 62.2852 50.1016C62.543 50.3008 62.8711 50.4004 63.2695 50.4004C64.3125 50.4004 65.0332 49.9551 65.4316 49.0645V40.4688C65.4316 39.9297 65.3203 39.5312 65.0977 39.2734C64.7461 38.8398 64.1426 38.4121 63.2871 37.9902C64.084 37.627 64.5996 37.3047 64.834 37.0234C65.2324 36.5664 65.4316 36.0508 65.4316 35.4766V28.0586C65.0332 27.1562 64.3125 26.7051 63.2695 26.7051C62.8711 26.7051 62.543 26.8047 62.2852 27.0039C62.1562 26.8281 62.0918 26.6289 62.0918 26.4062C62.0918 26.1719 62.1562 25.9551 62.2852 25.7559C62.4258 25.5566 62.6133 25.3867 62.8477 25.2461C63.3867 24.918 64.002 24.7539 64.6934 24.7539C65.3965 24.7539 66.041 24.9473 66.627 25.334C67.2363 24.9473 67.916 24.7539 68.666 24.7539C69.416 24.7539 70.0957 24.9473 70.7051 25.334C71.291 24.9473 71.8418 24.7539 72.3574 24.7539C72.873 24.7539 73.2949 24.8008 73.623 24.8945C73.9512 24.9766 74.2383 25.0938 74.4844 25.2461C74.9883 25.5508 75.2402 25.9316 75.2402 26.3887C75.2402 26.623 75.1758 26.8281 75.0469 27.0039C74.7891 26.8047 74.4609 26.7051 74.0625 26.7051C73.0195 26.7051 72.2988 27.1562 71.9004 28.0586V35.4766C71.9004 36.0508 72.0234 36.4785 72.2695 36.7598C72.6562 37.2168 73.248 37.627 74.0449 37.9902C73.1895 38.4121 72.6445 38.7578 72.4102 39.0273C72.0703 39.4492 71.9004 39.9297 71.9004 40.4688V49.0645C72.2988 49.9551 73.0195 50.4004 74.0625 50.4004C74.4609 50.4004 74.7891 50.3008 75.0469 50.1016C75.1758 50.2773 75.2402 50.4824 75.2402 50.7168C75.2402 50.9395 75.1699 51.1504 75.0293 51.3496C74.9004 51.5488 74.7188 51.7188 74.4844 51.8594C73.9453 52.1875 73.3301 52.3516 72.6387 52.3516C71.9473 52.3516 71.3027 52.1641 70.7051 51.7891ZM67.1191 47.3418C67.7051 47.1191 68.0273 46.3516 68.0859 45.0391C68.1562 43.7266 68.1914 41.9102 68.1914 39.5898C68.1914 37.2695 68.1855 35.7285 68.1738 34.9668C68.1738 34.1934 68.168 33.5723 68.1562 33.1035C68.1211 31.7207 67.9863 30.8887 67.752 30.6074C67.5293 30.3145 67.3184 30.1211 67.1191 30.0273C67.1191 34.1055 67.0488 36.4258 66.9082 36.9883C66.7441 37.457 66.3457 37.791 65.7129 37.9902C66.416 38.2363 66.8145 38.5352 66.9082 38.8867C67.0488 39.4492 67.1191 41.5059 67.1191 45.0566V47.3418ZM102.592 27.0918C102.287 26.8926 101.924 26.793 101.502 26.793C100.67 26.793 99.9199 27.25 99.252 28.1641C97.4707 32.9102 96.5508 35.4531 96.4922 35.793C96.4336 36.1328 96.4043 36.3789 96.4043 36.5312C96.4043 37.2578 96.8027 37.7441 97.5996 37.9902C96.7324 38.3418 96.1348 38.6934 95.8066 39.0449C95.291 39.6191 94.8281 40.498 94.418 41.6816L91.2012 50.4707C90.6035 52.1699 90.1641 53.1133 89.8828 53.3008C89.7773 53.3594 89.6543 53.3887 89.5137 53.3887C89.373 53.3887 89.2559 53.3477 89.1621 53.2656L83.4492 40.4863C83.2148 39.9355 82.9102 39.5137 82.5352 39.2207C81.9258 38.752 81.1465 38.3418 80.1973 37.9902C81.2168 37.4277 81.7148 36.9062 81.6914 36.4258C81.6914 36.2031 81.5977 35.8457 81.4102 35.3535L78.334 27.4434C77.7129 27.0098 77.1445 26.793 76.6289 26.793C76.2539 26.793 75.9141 26.8926 75.6094 27.0918C75.4805 26.998 75.416 26.8223 75.416 26.5645C75.416 26.3066 75.457 26.0723 75.5391 25.8613C75.6211 25.6387 75.75 25.4453 75.9258 25.2812C76.3008 24.9297 76.8398 24.7539 77.543 24.7539C78.2461 24.7539 78.8672 24.9414 79.4062 25.3164C80.0039 24.9414 80.7012 24.7539 81.498 24.7539C82.3066 24.7539 83.0039 24.9355 83.5898 25.2988C84.2109 24.9355 84.7793 24.7539 85.2949 24.7539C85.8105 24.7539 86.2324 24.7949 86.5605 24.877C86.8887 24.9473 87.1758 25.0586 87.4219 25.2109C87.9492 25.5156 88.2246 25.9375 88.248 26.4766C88.248 26.8047 88.1836 27.0098 88.0547 27.0918C87.7383 26.8926 87.416 26.793 87.0879 26.793C86.3496 26.793 85.7754 26.9336 85.3652 27.2148L91.1309 43.668L96.5449 28.0059C96.4863 27.6074 96.3281 27.291 96.0703 27.0566C95.8242 26.8223 95.4434 26.7051 94.9277 26.7051C94.4121 26.7051 93.9844 26.8047 93.6445 27.0039C93.5273 26.8281 93.4688 26.5527 93.4688 26.1777C93.4688 25.8027 93.627 25.4746 93.9434 25.1934C94.2598 24.9004 94.6934 24.7539 95.2441 24.7539C95.8066 24.7539 96.3047 24.8887 96.7383 25.1582C97.1133 24.8887 97.582 24.7539 98.1445 24.7539C98.707 24.7539 99.1699 24.8828 99.5332 25.1406C100.049 24.8828 100.564 24.7539 101.08 24.7539C101.596 24.7539 102.006 24.9238 102.311 25.2637C102.627 25.5918 102.785 26.0195 102.785 26.5469C102.785 26.8164 102.721 26.998 102.592 27.0918ZM96.5273 28.7617C96.5039 28.832 96.4922 28.8789 96.4922 28.9023L96.5273 28.7617ZM82.2188 30.0273C81.9609 30.2148 81.832 30.4609 81.832 30.7656C81.832 31.0586 81.8379 31.2812 81.8496 31.4336C81.873 31.5859 81.9199 31.7852 81.9902 32.0312C82.0605 32.2656 82.166 32.5703 82.3066 32.9453L83.2734 35.4414C83.5078 36.0508 83.6367 36.5078 83.6602 36.8125C83.7188 37.3281 83.3906 37.7207 82.6758 37.9902C83.1562 38.084 83.5488 38.2012 83.8535 38.3418C84.1699 38.4707 84.4512 38.8047 84.6973 39.3438C84.9434 39.8711 85.2656 40.6328 85.6641 41.6289L87.1406 45.2148C87.5859 46.3047 88.0781 46.9609 88.6172 47.1836C88.7695 47.2539 88.9219 47.3066 89.0742 47.3418L82.2188 30.0273ZM109.395 52.3516C108.621 52.3516 107.936 52.1641 107.338 51.7891C106.74 52.1641 106.184 52.3516 105.668 52.3516C105.164 52.3516 104.748 52.3047 104.42 52.2109C104.092 52.1289 103.805 52.0117 103.559 51.8594C103.055 51.5547 102.803 51.1738 102.803 50.7168C102.803 50.4824 102.867 50.2773 102.996 50.1016C103.254 50.3008 103.582 50.4004 103.98 50.4004C105.023 50.4004 105.744 49.9551 106.143 49.0645V40.4688C106.143 39.9297 106.031 39.5312 105.809 39.2734C105.457 38.8398 104.854 38.4121 103.998 37.9902C104.795 37.627 105.311 37.3047 105.545 37.0234C105.943 36.5664 106.143 36.0508 106.143 35.4766V28.0586C105.744 27.1562 105.023 26.7051 103.98 26.7051C103.582 26.7051 103.254 26.8047 102.996 27.0039C102.867 26.8281 102.803 26.6289 102.803 26.4062C102.803 26.1719 102.867 25.9551 102.996 25.7559C103.137 25.5566 103.324 25.3867 103.559 25.2461C104.098 24.918 104.713 24.7539 105.404 24.7539C106.107 24.7539 106.752 24.9473 107.338 25.334C107.947 24.9473 108.645 24.7539 109.43 24.7539C110.215 24.7539 110.93 24.9824 111.574 25.4395C112.816 24.9824 114.252 24.7539 115.881 24.7539C117.088 24.7539 118.119 24.8711 118.975 25.1055L120.539 25.5273C120.727 25.5742 120.908 25.5977 121.084 25.5977C121.412 25.5977 121.576 25.3633 121.576 24.8945C121.576 24.7773 121.535 24.5781 121.453 24.2969C121.781 24.2383 122.197 24.209 122.701 24.209C123.205 24.209 123.633 24.3789 123.984 24.7188C124.336 25.0469 124.512 25.5273 124.512 26.1602C124.512 26.7812 124.4 27.2383 124.178 27.5312C124.494 28 124.652 28.5742 124.652 29.2539C124.652 29.9219 124.424 30.4844 123.967 30.9414C124.107 31.293 124.178 31.6387 124.178 31.9785C124.178 32.3066 124.119 32.6113 124.002 32.8926C123.896 33.1621 123.762 33.3906 123.598 33.5781C123.27 33.918 122.936 34.0879 122.596 34.0879C122.104 34.0879 121.658 33.9824 121.26 33.7715C121.4 33.4902 121.471 33.0742 121.471 32.5234C121.471 31.2344 121.148 30.1035 120.504 29.1309C119.625 27.7949 118.307 27.127 116.549 27.127C115.658 27.127 114.85 27.3438 114.123 27.7773C113.408 28.2109 112.904 28.832 112.611 29.6406V36.4434C113.021 36.7012 113.402 36.8301 113.754 36.8301C114.117 36.8301 114.387 36.8242 114.562 36.8125C114.75 36.8008 114.938 36.7773 115.125 36.7422C115.605 36.6719 115.975 36.5781 116.232 36.4609C116.725 36.2266 116.971 35.6523 116.971 34.7383C116.971 34.2227 116.848 33.8242 116.602 33.543C116.836 33.3789 117.129 33.2969 117.48 33.2969C118.266 33.2969 118.834 33.6133 119.186 34.2461C119.314 34.4688 119.379 34.7148 119.379 34.9844C119.379 35.2539 119.309 35.5879 119.168 35.9863C119.648 36.5371 119.889 37.1934 119.889 37.9551C119.889 38.7051 119.648 39.3555 119.168 39.9062C119.309 40.3047 119.379 40.668 119.379 40.9961C119.379 41.3125 119.314 41.6172 119.186 41.9102C119.057 42.2031 118.898 42.4375 118.711 42.6133C118.348 42.9414 117.938 43.1055 117.48 43.1055C117.152 43.1055 116.859 43.0117 116.602 42.8242C116.848 42.4141 116.971 41.9336 116.971 41.3828C116.971 40.293 116.672 39.6191 116.074 39.3613C115.547 39.1504 114.943 39.0449 114.264 39.0449C113.584 39.0449 113.033 39.168 112.611 39.4141V48.2031C113.291 49.3984 114.604 49.9961 116.549 49.9961C118.752 49.9961 120.252 49.3164 121.049 47.957C121.975 46.3984 122.438 44.7285 122.438 42.9473C122.438 42.4316 122.391 42.0332 122.297 41.752C122.59 41.459 122.895 41.3125 123.211 41.3125C123.527 41.3125 123.768 41.3594 123.932 41.4531C124.096 41.5352 124.242 41.6406 124.371 41.7695C124.652 42.0859 124.793 42.4082 124.793 42.7363L124.688 43.5977C124.688 43.8203 124.746 44.002 124.863 44.1426C125.098 44.3887 125.215 44.623 125.215 44.8457C125.215 45.0566 125.145 45.3145 125.004 45.6191C125.273 45.7715 125.514 46 125.725 46.3047C125.947 46.5977 126.059 46.9023 126.059 47.2188C126.059 47.8867 125.777 48.4844 125.215 49.0117C125.461 49.3633 125.584 49.873 125.584 50.541C125.584 51.1973 125.391 51.7539 125.004 52.2109C124.629 52.6797 124.137 52.9141 123.527 52.9141C123.199 52.9141 122.859 52.8789 122.508 52.8086C122.555 52.5508 122.578 52.293 122.578 52.0352C122.578 51.4961 122.332 51.2266 121.84 51.2266C121.289 51.2266 120.738 51.3379 120.188 51.5605C118.887 52.0879 117.404 52.3516 115.74 52.3516C114.088 52.3516 112.682 52.1348 111.521 51.7012C110.912 52.1348 110.203 52.3516 109.395 52.3516ZM107.83 47.3418C108.416 47.1191 108.738 46.3516 108.797 45.0391C108.867 43.7266 108.902 41.9102 108.902 39.5898C108.902 37.2695 108.896 35.7285 108.885 34.9668C108.885 34.1934 108.879 33.5723 108.867 33.1035C108.832 31.7207 108.697 30.8887 108.463 30.6074C108.24 30.3145 108.029 30.1211 107.83 30.0273C107.83 34.1055 107.76 36.4258 107.619 36.9883C107.455 37.457 107.057 37.791 106.424 37.9902C107.127 38.2363 107.525 38.5352 107.619 38.8867C107.76 39.4492 107.83 41.5059 107.83 45.0566V47.3418ZM112.26 47.166C112.26 47.2012 112.266 47.2305 112.277 47.2539L112.26 47.166ZM136.764 51.7891C136.166 52.1641 135.486 52.3516 134.725 52.3516C133.963 52.3516 133.283 52.1641 132.686 51.7891C132.088 52.1641 131.531 52.3516 131.016 52.3516C130.512 52.3516 130.096 52.3047 129.768 52.2109C129.439 52.1289 129.152 52.0117 128.906 51.8594C128.402 51.5547 128.15 51.1738 128.15 50.7168C128.15 50.4824 128.215 50.2773 128.344 50.1016C128.602 50.3008 128.93 50.4004 129.328 50.4004C130.371 50.4004 131.092 49.9551 131.49 49.0645V40.4688C131.49 39.9297 131.379 39.5312 131.156 39.2734C130.805 38.8398 130.201 38.4121 129.346 37.9902C130.143 37.627 130.658 37.3047 130.893 37.0234C131.291 36.5664 131.49 36.0508 131.49 35.4766V28.0586C131.092 27.1562 130.371 26.7051 129.328 26.7051C128.93 26.7051 128.602 26.8047 128.344 27.0039C128.215 26.8281 128.15 26.6289 128.15 26.4062C128.15 26.1719 128.215 25.9551 128.344 25.7559C128.484 25.5566 128.672 25.3867 128.906 25.2461C129.445 24.918 130.061 24.7539 130.752 24.7539C131.455 24.7539 132.1 24.9473 132.686 25.334C133.295 24.9473 133.975 24.7539 134.725 24.7539C135.475 24.7539 136.154 24.9473 136.764 25.334C138.088 24.8301 139.553 24.5781 141.158 24.5781C142.775 24.5781 144.129 24.7246 145.219 25.0176C146.309 25.3105 147.246 25.7266 148.031 26.2656C149.613 27.3555 150.598 28.873 150.984 30.8184C151.137 31.6855 151.693 32.3418 152.654 32.7871C151.74 33.3027 151.143 34.123 150.861 35.248C150.287 37.5684 148.852 39.0156 146.555 39.5898C147.738 39.9062 148.705 40.5566 149.455 41.541C150.229 42.5605 150.615 43.7617 150.615 45.1445V46.9023C150.615 48.5898 151.16 49.6797 152.25 50.1719C152.578 50.3242 152.936 50.4004 153.322 50.4004C153.709 50.4004 154.031 50.3008 154.289 50.1016C154.418 50.2773 154.482 50.4824 154.482 50.7168C154.482 50.9395 154.424 51.1504 154.307 51.3496C154.189 51.5488 154.031 51.7188 153.832 51.8594C153.41 52.1875 152.918 52.3516 152.355 52.3516C151.793 52.3516 151.242 52.1992 150.703 51.8945C149.719 52.4336 148.799 52.4863 147.943 52.0527C147.615 52.252 147.27 52.3516 146.906 52.3516C146.543 52.3516 146.191 52.2695 145.852 52.1055C145.523 51.9414 145.23 51.6719 144.973 51.2969C144.422 50.4883 144.146 49.2461 144.146 47.5703V46.2695C144.146 43.5625 143.373 41.8047 141.826 40.9961C141.311 40.7266 140.707 40.5918 140.016 40.5918H137.959V49.1523C138.275 49.9844 138.879 50.4004 139.77 50.4004C140.168 50.4004 140.496 50.3008 140.754 50.1016C140.883 50.2773 140.947 50.5352 140.947 50.875C140.947 51.2148 140.76 51.5488 140.385 51.877C140.021 52.1934 139.471 52.3516 138.732 52.3516C137.994 52.3516 137.338 52.1641 136.764 51.7891ZM141.334 26.916C139.084 26.916 137.959 27.7891 137.959 29.5352V36.7246C137.959 37.334 138.199 37.7441 138.68 37.9551C139.137 38.1543 139.811 38.2539 140.701 38.2539C141.604 38.2539 142.23 38.207 142.582 38.1133C142.945 38.0078 143.256 37.832 143.514 37.5859C144.041 37.082 144.305 36.2383 144.305 35.0547V29.9219C144.305 28.457 143.695 27.5195 142.477 27.1094C142.113 26.9805 141.732 26.916 141.334 26.916ZM145.482 28.041C145.846 28.8613 146.027 30.1738 146.027 31.9785C146.027 35.084 145.881 36.9414 145.588 37.5508C146.232 37.4219 146.695 36.5605 146.977 34.9668L147.117 34.2461C147.246 33.4844 147.621 32.998 148.242 32.7871C147.785 32.6348 147.492 32.4531 147.363 32.2422C147.223 31.9961 147.094 31.5801 146.977 30.9941C146.871 30.3965 146.76 29.916 146.643 29.5527C146.525 29.1895 146.402 28.9023 146.273 28.6914C146.051 28.3164 145.787 28.0996 145.482 28.041ZM133.178 47.3418C133.764 47.1191 134.086 46.3516 134.145 45.0391C134.215 43.7266 134.25 41.9102 134.25 39.5898C134.25 37.2695 134.244 35.7285 134.232 34.9668C134.232 34.1934 134.227 33.5723 134.215 33.1035C134.18 31.7207 134.045 30.8887 133.811 30.6074C133.588 30.3145 133.377 30.1211 133.178 30.0273C133.178 34.1055 133.107 36.4258 132.967 36.9883C132.803 37.457 132.404 37.791 131.771 37.9902C132.475 38.2363 132.873 38.5352 132.967 38.8867C133.107 39.4492 133.178 41.5059 133.178 45.0566V47.3418ZM145.307 42.5254C145.775 43.0527 146.01 43.6973 146.01 44.459V46.7793C146.01 48.7246 146.396 49.7617 147.17 49.8906C147.381 49.9258 147.586 49.9199 147.785 49.873C147.363 49.2168 147.152 48.5254 147.152 47.7988V45.3379C147.152 44.4121 147.023 43.7559 146.766 43.3691C146.32 42.7129 145.834 42.4316 145.307 42.5254ZM160.336 51.3145C159.398 52.252 158.508 52.7207 157.664 52.7207C157.125 52.7207 156.762 52.5215 156.574 52.123C156.844 51.7949 156.979 51.3027 156.979 50.6465V50.3828C156.979 50.3125 156.973 50.248 156.961 50.1895C156.375 49.6621 156.082 49.041 156.082 48.3262C156.082 47.5996 156.422 46.8613 157.102 46.1113C156.902 45.7129 156.803 45.291 156.803 44.8457C156.803 44.3887 156.867 43.9668 156.996 43.5801C157.137 43.1816 157.324 42.8359 157.559 42.543C158.051 41.8984 158.531 41.5762 159 41.5762C159.48 41.5762 159.82 41.7637 160.02 42.1387C159.598 42.584 159.387 43.2812 159.387 44.2305C159.387 45.1797 159.521 46.0059 159.791 46.709C160.072 47.4121 160.465 48.0156 160.969 48.5195C162.047 49.6211 163.424 50.1719 165.1 50.1719C166.225 50.1719 167.18 49.8496 167.965 49.2051C168.809 48.5137 169.23 47.5703 169.23 46.375C169.23 45.5312 169.031 44.8457 168.633 44.3184C168.012 43.498 167.039 42.6309 165.715 41.7168C164.695 41.002 163.881 40.6445 163.271 40.6445C162.65 40.6445 161.965 40.8965 161.215 41.4004C161.414 40.8027 161.514 40.2461 161.514 39.7305C161.514 39.6133 161.402 39.4609 161.18 39.2734L160.529 38.6934C158.479 36.8066 157.266 35.0547 156.891 33.4375C156.762 32.875 156.697 32.1719 156.697 31.3281C156.697 30.4727 156.902 29.6113 157.312 28.7441C157.734 27.8652 158.309 27.1211 159.035 26.5117C160.547 25.2227 162.469 24.5781 164.801 24.5781C166.219 24.5781 167.52 24.8066 168.703 25.2637C169.207 25.4629 169.781 25.5625 170.426 25.5625C170.695 25.5625 170.936 25.5508 171.146 25.5273C171.369 25.4922 171.562 25.3691 171.727 25.1582C171.879 24.9355 171.955 24.7363 171.955 24.5605C171.955 24.3848 171.932 24.2383 171.885 24.1211C171.967 24.0859 172.078 24.0684 172.219 24.0684C172.371 24.0684 172.535 24.1211 172.711 24.2266C172.887 24.3203 173.045 24.4551 173.186 24.6309C173.502 25.0293 173.66 25.4805 173.66 25.9844C173.66 26.4766 173.52 26.8516 173.238 27.1094C173.637 27.4609 173.836 28.0059 173.836 28.7441C173.836 29.4707 173.59 30.0801 173.098 30.5723C173.191 30.8887 173.238 31.1758 173.238 31.4336C173.238 31.6797 173.191 31.9199 173.098 32.1543C173.016 32.377 172.898 32.5703 172.746 32.7344C172.406 33.0977 172.084 33.2793 171.779 33.2793C171.299 33.2793 170.895 33.1973 170.566 33.0332C170.766 32.5645 170.865 32.0605 170.865 31.5215C170.865 30.9824 170.742 30.4316 170.496 29.8691C170.262 29.2949 169.928 28.7969 169.494 28.375C168.58 27.5078 167.385 27.0742 165.908 27.0742C164.971 27.0742 164.203 27.3613 163.605 27.9355C163.043 28.4746 162.762 29.125 162.762 29.8867C162.762 30.4609 162.902 30.9414 163.184 31.3281C163.676 31.9961 164.455 32.6875 165.521 33.4023L166.365 33.9648C166.834 34.2578 167.15 34.4043 167.314 34.4043C167.479 34.4043 167.643 34.3867 167.807 34.3516C167.971 34.3164 168.152 34.2695 168.352 34.2109C168.773 34.0703 169.184 33.8711 169.582 33.6133L169.354 34.5977C169.283 34.9258 169.248 35.166 169.248 35.3184C169.248 35.5645 169.371 35.7871 169.617 35.9863C171.809 37.8848 173.273 39.4727 174.012 40.75C174.656 41.8633 174.979 43.0645 174.979 44.3535C174.979 45.6426 174.768 46.75 174.346 47.6758C173.924 48.6016 173.309 49.4219 172.5 50.1367C170.719 51.7305 168.404 52.5273 165.557 52.5273C163.553 52.5273 161.812 52.123 160.336 51.3145ZM159.141 30.0273C158.695 30.2148 158.473 30.7012 158.473 31.4863C158.473 33.0918 159.545 34.8555 161.689 36.7773L162.744 37.7266C163.107 38.0547 163.266 38.3066 163.219 38.4824C163.184 38.6582 163.148 38.7988 163.113 38.9043C163.09 39.0098 163.061 39.1094 163.025 39.2031C162.99 39.2969 162.967 39.3672 162.955 39.4141C163.365 39.168 163.699 39.0449 163.957 39.0449C164.473 39.0449 164.959 39.1855 165.416 39.4668C167.678 40.873 169.213 42.127 170.021 43.2285C170.607 44.0371 170.912 45.0449 170.936 46.252C170.936 46.6855 170.906 47.0488 170.848 47.3418C171.469 46.9434 171.779 46.3105 171.779 45.4434C171.779 44.5996 171.662 43.9492 171.428 43.4922C171.205 43.0352 170.941 42.6309 170.637 42.2793C170.332 41.916 169.934 41.5234 169.441 41.1016C168.961 40.6797 168.363 40.2227 167.648 39.7305L165.152 38.0254C163.102 36.6777 161.543 35.2539 160.477 33.7539C159.539 32.4297 159.094 31.1875 159.141 30.0273ZM178.318 51.877C177.885 52.1934 177.387 52.3516 176.824 52.3516C176.273 52.3516 175.834 52.2109 175.506 51.9297C175.166 51.6367 174.996 51.3027 174.996 50.9277C174.996 50.5527 175.055 50.2773 175.172 50.1016C175.512 50.3008 175.928 50.4004 176.42 50.4004C176.924 50.4004 177.299 50.3359 177.545 50.207C177.803 50.0664 178.049 49.8789 178.283 49.6445L180.779 42.2441L181.131 41.0312C181.236 40.668 181.289 40.334 181.289 40.0293C181.289 38.9629 180.785 38.2832 179.777 37.9902C180.703 37.6387 181.354 37.2578 181.729 36.8477C182.314 36.2031 182.777 35.3535 183.117 34.2988L185.051 27.8125C184.676 27.3086 184.23 27.0566 183.715 27.0566C183.199 27.0566 182.719 27.168 182.273 27.3906C182.156 27.1797 182.098 26.9453 182.098 26.6875C182.098 26.418 182.15 26.166 182.256 25.9316C182.373 25.6973 182.531 25.4922 182.73 25.3164C183.176 24.9414 183.809 24.7539 184.629 24.7539C185.449 24.7539 186.146 25 186.721 25.4922C187.307 25 188.033 24.7539 188.9 24.7539C189.779 24.7539 190.477 24.9883 190.992 25.457C191.742 24.9883 192.504 24.7539 193.277 24.7539C194.051 24.7539 194.648 24.9004 195.07 25.1934C195.504 25.4863 195.721 25.8848 195.721 26.3887C195.721 26.623 195.65 26.8281 195.51 27.0039C195.24 26.8047 194.924 26.7051 194.561 26.7051C193.775 26.7051 193.266 27.2383 193.031 28.3047L195.281 35.4941C195.562 36.3965 196.266 37.0996 197.391 37.6035C197.707 37.7441 198.029 37.873 198.357 37.9902C197.186 38.377 196.6 38.957 196.6 39.7305C196.6 40.0234 196.646 40.2812 196.74 40.5039L200.098 49.5039C200.613 50.043 201.135 50.3125 201.662 50.3125C202.189 50.3125 202.6 50.2129 202.893 50.0137C203.021 50.1074 203.086 50.2832 203.086 50.541C203.086 50.7988 203.045 51.0391 202.963 51.2617C202.881 51.4727 202.752 51.6602 202.576 51.8242C202.201 52.1758 201.65 52.3516 200.924 52.3516C200.197 52.3516 199.564 52.1523 199.025 51.7539C198.416 52.1523 197.725 52.3516 196.951 52.3516C196.189 52.3516 195.533 52.1582 194.982 51.7715C194.455 52.1582 193.834 52.3516 193.119 52.3516C192.404 52.3516 191.812 52.2051 191.344 51.9121C190.875 51.6074 190.629 51.1797 190.605 50.6289C190.605 50.3008 190.67 50.0957 190.799 50.0137C191.115 50.2129 191.438 50.3125 191.766 50.3125C192.457 50.3125 192.943 50.1719 193.225 49.8906L191.889 45.4082H182.379L181.219 49.293C181.699 50.0312 182.279 50.4004 182.959 50.4004C183.65 50.4004 184.166 50.3008 184.506 50.1016C184.635 50.3125 184.699 50.6055 184.699 50.9805C184.699 51.3438 184.518 51.666 184.154 51.9473C183.791 52.2168 183.322 52.3516 182.748 52.3516C182.174 52.3516 181.646 52.2051 181.166 51.9121C180.744 52.2051 180.258 52.3516 179.707 52.3516C179.168 52.3516 178.705 52.1934 178.318 51.877ZM191.168 43.0352L187.09 29.4824L183.082 43.0352H191.168ZM194.525 47.3418C194.736 47.3418 194.842 47.1074 194.842 46.6387C194.842 45.8184 194.719 45.0215 194.473 44.248L193.805 42.1914C193.336 40.6445 193.102 39.6719 193.102 39.2734C193.09 38.6172 193.377 38.1836 193.963 37.9727C193.154 37.8086 192.662 37.5566 192.486 37.2168C192.404 37.0762 192.334 36.9648 192.275 36.8828C192.229 36.8008 192.176 36.707 192.117 36.6016C192.07 36.4844 192.012 36.3379 191.941 36.1621C191.871 35.9863 191.777 35.7344 191.66 35.4062L190.57 32.1191C190.312 31.2988 189.932 30.6777 189.428 30.2559C189.275 30.127 189.135 30.0508 189.006 30.0273C189.791 32.8633 190.307 34.6797 190.553 35.4766C192.252 40.7031 193.271 43.8027 193.611 44.7754L194.525 47.3418ZM199.711 48.9238L199.746 49.0293L199.711 48.9238ZM187.758 17.1953C188.18 16.7266 188.83 16.4922 189.709 16.4922C190.436 16.4922 190.986 16.6621 191.361 17.002C192.018 17.5996 192.346 18.2852 192.346 19.0586C192.346 19.832 192.07 20.5938 191.52 21.3438C190.969 22.0938 190.266 22.6562 189.41 23.0312C188.156 23.5938 187.184 23.875 186.492 23.875C186.258 23.875 186.059 23.8457 185.895 23.7871C185.73 23.7285 185.648 23.6172 185.648 23.4531C185.648 23.2422 185.812 22.9727 186.141 22.6445C186.469 22.3164 186.744 21.9531 186.967 21.5547C187.201 21.1562 187.383 20.7578 187.512 20.3594C187.723 19.6914 187.828 19.0469 187.828 18.4258C187.828 17.8047 187.805 17.3945 187.758 17.1953ZM188.988 17.5293C189.117 17.8105 189.182 18.168 189.182 18.6016C189.182 19.0234 189.146 19.4043 189.076 19.7441C189.018 20.084 188.918 20.418 188.777 20.7461C188.484 21.3672 188.016 22.0234 187.371 22.7148C188.273 22.293 188.982 21.6836 189.498 20.8867C189.92 20.2305 190.131 19.5977 190.131 18.9883C190.131 17.9336 189.867 17.4062 189.34 17.4062C189.188 17.4062 189.07 17.4473 188.988 17.5293ZM211.787 51.7891C211.189 52.1641 210.51 52.3516 209.748 52.3516C208.986 52.3516 208.307 52.1641 207.709 51.7891C207.111 52.1641 206.555 52.3516 206.039 52.3516C205.535 52.3516 205.119 52.3047 204.791 52.2109C204.463 52.1289 204.176 52.0117 203.93 51.8594C203.426 51.5547 203.174 51.1738 203.174 50.7168C203.174 50.4824 203.238 50.2773 203.367 50.1016C203.625 50.3008 203.953 50.4004 204.352 50.4004C205.395 50.4004 206.115 49.9551 206.514 49.0645V40.4688C206.514 39.9297 206.402 39.5312 206.18 39.2734C205.828 38.8398 205.225 38.4121 204.369 37.9902C205.166 37.627 205.682 37.3047 205.916 37.0234C206.314 36.5664 206.514 36.0508 206.514 35.4766V28.0586C206.115 27.1562 205.395 26.7051 204.352 26.7051C203.953 26.7051 203.625 26.8047 203.367 27.0039C203.238 26.8281 203.174 26.6289 203.174 26.4062C203.174 26.1719 203.238 25.9551 203.367 25.7559C203.508 25.5566 203.695 25.3867 203.93 25.2461C204.469 24.918 205.084 24.7539 205.775 24.7539C206.479 24.7539 207.123 24.9473 207.709 25.334C208.318 24.9473 208.998 24.7539 209.748 24.7539C210.498 24.7539 211.178 24.9473 211.787 25.334C213.111 24.8301 214.576 24.5781 216.182 24.5781C217.799 24.5781 219.152 24.7246 220.242 25.0176C221.332 25.3105 222.27 25.7266 223.055 26.2656C224.637 27.3555 225.621 28.873 226.008 30.8184C226.16 31.6855 226.717 32.3418 227.678 32.7871C226.764 33.3027 226.166 34.123 225.885 35.248C225.311 37.5684 223.875 39.0156 221.578 39.5898C222.762 39.9062 223.729 40.5566 224.479 41.541C225.252 42.5605 225.639 43.7617 225.639 45.1445V46.9023C225.639 48.5898 226.184 49.6797 227.273 50.1719C227.602 50.3242 227.959 50.4004 228.346 50.4004C228.732 50.4004 229.055 50.3008 229.312 50.1016C229.441 50.2773 229.506 50.4824 229.506 50.7168C229.506 50.9395 229.447 51.1504 229.33 51.3496C229.213 51.5488 229.055 51.7188 228.855 51.8594C228.434 52.1875 227.941 52.3516 227.379 52.3516C226.816 52.3516 226.266 52.1992 225.727 51.8945C224.742 52.4336 223.822 52.4863 222.967 52.0527C222.639 52.252 222.293 52.3516 221.93 52.3516C221.566 52.3516 221.215 52.2695 220.875 52.1055C220.547 51.9414 220.254 51.6719 219.996 51.2969C219.445 50.4883 219.17 49.2461 219.17 47.5703V46.2695C219.17 43.5625 218.396 41.8047 216.85 40.9961C216.334 40.7266 215.73 40.5918 215.039 40.5918H212.982V49.1523C213.299 49.9844 213.902 50.4004 214.793 50.4004C215.191 50.4004 215.52 50.3008 215.777 50.1016C215.906 50.2773 215.971 50.5352 215.971 50.875C215.971 51.2148 215.783 51.5488 215.408 51.877C215.045 52.1934 214.494 52.3516 213.756 52.3516C213.018 52.3516 212.361 52.1641 211.787 51.7891ZM216.357 26.916C214.107 26.916 212.982 27.7891 212.982 29.5352V36.7246C212.982 37.334 213.223 37.7441 213.703 37.9551C214.16 38.1543 214.834 38.2539 215.725 38.2539C216.627 38.2539 217.254 38.207 217.605 38.1133C217.969 38.0078 218.279 37.832 218.537 37.5859C219.064 37.082 219.328 36.2383 219.328 35.0547V29.9219C219.328 28.457 218.719 27.5195 217.5 27.1094C217.137 26.9805 216.756 26.916 216.357 26.916ZM220.506 28.041C220.869 28.8613 221.051 30.1738 221.051 31.9785C221.051 35.084 220.904 36.9414 220.611 37.5508C221.256 37.4219 221.719 36.5605 222 34.9668L222.141 34.2461C222.27 33.4844 222.645 32.998 223.266 32.7871C222.809 32.6348 222.516 32.4531 222.387 32.2422C222.246 31.9961 222.117 31.5801 222 30.9941C221.895 30.3965 221.783 29.916 221.666 29.5527C221.549 29.1895 221.426 28.9023 221.297 28.6914C221.074 28.3164 220.811 28.0996 220.506 28.041ZM208.201 47.3418C208.787 47.1191 209.109 46.3516 209.168 45.0391C209.238 43.7266 209.273 41.9102 209.273 39.5898C209.273 37.2695 209.268 35.7285 209.256 34.9668C209.256 34.1934 209.25 33.5723 209.238 33.1035C209.203 31.7207 209.068 30.8887 208.834 30.6074C208.611 30.3145 208.4 30.1211 208.201 30.0273C208.201 34.1055 208.131 36.4258 207.99 36.9883C207.826 37.457 207.428 37.791 206.795 37.9902C207.498 38.2363 207.896 38.5352 207.99 38.8867C208.131 39.4492 208.201 41.5059 208.201 45.0566V47.3418ZM220.33 42.5254C220.799 43.0527 221.033 43.6973 221.033 44.459V46.7793C221.033 48.7246 221.42 49.7617 222.193 49.8906C222.404 49.9258 222.609 49.9199 222.809 49.873C222.387 49.2168 222.176 48.5254 222.176 47.7988V45.3379C222.176 44.4121 222.047 43.7559 221.789 43.3691C221.344 42.7129 220.857 42.4316 220.33 42.5254ZM239.104 51.7891C238.506 52.1641 237.826 52.3516 237.064 52.3516C236.303 52.3516 235.623 52.1641 235.025 51.7891C234.428 52.1641 233.871 52.3516 233.355 52.3516C232.852 52.3516 232.436 52.3047 232.107 52.2109C231.779 52.1289 231.492 52.0117 231.246 51.8594C230.742 51.5547 230.49 51.1738 230.49 50.7168C230.49 50.4824 230.555 50.2773 230.684 50.1016C230.941 50.3008 231.27 50.4004 231.668 50.4004C232.711 50.4004 233.432 49.9551 233.83 49.0645V40.4688C233.83 39.9297 233.719 39.5312 233.496 39.2734C233.145 38.8398 232.541 38.4121 231.686 37.9902C232.482 37.627 232.998 37.3047 233.232 37.0234C233.631 36.5664 233.83 36.0508 233.83 35.4766V28.0586C233.432 27.1562 232.711 26.7051 231.668 26.7051C231.27 26.7051 230.941 26.8047 230.684 27.0039C230.555 26.8281 230.49 26.6289 230.49 26.4062C230.49 26.1719 230.555 25.9551 230.684 25.7559C230.824 25.5566 231.012 25.3867 231.246 25.2461C231.785 24.918 232.4 24.7539 233.092 24.7539C233.795 24.7539 234.439 24.9473 235.025 25.334C235.635 24.9473 236.314 24.7539 237.064 24.7539C237.814 24.7539 238.494 24.9473 239.104 25.334C239.689 24.9473 240.24 24.7539 240.756 24.7539C241.271 24.7539 241.693 24.8008 242.021 24.8945C242.35 24.9766 242.637 25.0938 242.883 25.2461C243.387 25.5508 243.639 25.9316 243.639 26.3887C243.639 26.623 243.574 26.8281 243.445 27.0039C243.188 26.8047 242.859 26.7051 242.461 26.7051C241.418 26.7051 240.697 27.1562 240.299 28.0586V35.4766C240.299 36.0508 240.422 36.4785 240.668 36.7598C241.055 37.2168 241.646 37.627 242.443 37.9902C241.588 38.4121 241.043 38.7578 240.809 39.0273C240.469 39.4492 240.299 39.9297 240.299 40.4688V49.0645C240.697 49.9551 241.418 50.4004 242.461 50.4004C242.859 50.4004 243.188 50.3008 243.445 50.1016C243.574 50.2773 243.639 50.4824 243.639 50.7168C243.639 50.9395 243.568 51.1504 243.428 51.3496C243.299 51.5488 243.117 51.7188 242.883 51.8594C242.344 52.1875 241.729 52.3516 241.037 52.3516C240.346 52.3516 239.701 52.1641 239.104 51.7891ZM235.518 47.3418C236.104 47.1191 236.426 46.3516 236.484 45.0391C236.555 43.7266 236.59 41.9102 236.59 39.5898C236.59 37.2695 236.584 35.7285 236.572 34.9668C236.572 34.1934 236.566 33.5723 236.555 33.1035C236.52 31.7207 236.385 30.8887 236.15 30.6074C235.928 30.3145 235.717 30.1211 235.518 30.0273C235.518 34.1055 235.447 36.4258 235.307 36.9883C235.143 37.457 234.744 37.791 234.111 37.9902C234.814 38.2363 235.213 38.5352 235.307 38.8867C235.447 39.4492 235.518 41.5059 235.518 45.0566V47.3418ZM251.109 49.3984C250.137 48.3906 249.346 47.1777 248.736 45.7598C248.139 44.3418 247.77 43 247.629 41.7344C247.488 40.4688 247.271 39.5957 246.979 39.1152C246.697 38.623 246.293 38.248 245.766 37.9902C246.785 37.5098 247.383 36.5254 247.559 35.0371C247.746 33.5371 248.162 32.1367 248.807 30.8359C249.451 29.5352 250.271 28.4219 251.268 27.4961C253.365 25.5508 255.891 24.5781 258.844 24.5781C261.879 24.5781 264.393 25.4805 266.385 27.2852C268.459 29.1602 269.678 31.7852 270.041 35.1602C270.193 36.5664 270.791 37.5098 271.834 37.9902C270.814 38.4941 270.211 39.5605 270.023 41.1895C269.836 42.8184 269.467 44.3418 268.916 45.7598C268.365 47.1777 267.627 48.3906 266.701 49.3984C264.768 51.4844 262.154 52.5273 258.861 52.5273C255.709 52.5273 253.125 51.4844 251.109 49.3984ZM256.857 37.9902C255.568 38.6113 254.924 39.625 254.924 41.0312V46.252C254.924 48.1621 255.715 49.3867 257.297 49.9258C257.766 50.0898 258.275 50.1719 258.826 50.1719C259.377 50.1719 259.881 50.0898 260.338 49.9258C260.807 49.7617 261.211 49.5156 261.551 49.1875C262.254 48.5078 262.605 47.5293 262.605 46.252V41.0312C262.605 39.625 261.973 38.6113 260.707 37.9902C261.973 37.4043 262.605 36.4609 262.605 35.1602V30.959C262.605 29.6582 262.225 28.6445 261.463 27.918C260.748 27.25 259.863 26.916 258.809 26.916C257.016 26.916 255.82 27.666 255.223 29.166C255.023 29.6699 254.924 30.2676 254.924 30.959V35.1602C254.924 36.4844 255.568 37.4277 256.857 37.9902ZM264.223 30.0273C264.551 31.0117 264.715 32.7051 264.715 35.1074C264.715 36.4668 264.656 37.2109 264.539 37.3398C264.422 37.4688 264.305 37.5742 264.188 37.6562C263.977 37.7969 263.748 37.9082 263.502 37.9902C264.205 38.3066 264.574 38.6113 264.609 38.9043C264.727 40.0527 264.785 41.0488 264.785 41.8926C264.785 42.7246 264.773 43.3984 264.75 43.9141C264.727 44.418 264.691 44.8867 264.645 45.3203C264.551 46.2461 264.434 46.9199 264.293 47.3418C265.207 47.0605 265.717 45.707 265.822 43.2812C265.881 41.9219 265.91 40.4102 265.91 38.7461C265.91 37.0703 265.893 35.8164 265.857 34.9844C265.822 34.1406 265.77 33.4492 265.699 32.9102C265.559 31.668 265.266 30.8066 264.82 30.3262C264.691 30.1855 264.492 30.0859 264.223 30.0273ZM251.549 47.3418C251.725 47.2715 251.812 47.1484 251.812 46.9727C251.812 46.7148 251.689 46.3105 251.443 45.7598C250.822 44.3418 250.512 41.752 250.512 37.9902C250.512 35.248 250.84 32.916 251.496 30.9941C251.578 30.7012 251.619 30.4785 251.619 30.3262C251.619 30.1738 251.543 30.0742 251.391 30.0273C250.84 30.7188 250.447 31.4043 250.213 32.084C249.779 33.3262 249.434 35.0078 249.176 37.1289C249.141 37.4336 248.795 37.7207 248.139 37.9902C248.795 38.2832 249.141 38.582 249.176 38.8867C249.598 42.5195 250.137 44.9453 250.793 46.1641C251.016 46.5977 251.268 46.9902 251.549 47.3418Z" fill="white"/>
<path d="M178.43 63.5938C178.305 63.5781 178.18 63.5 178.055 63.3594C177.945 63.2188 177.844 63.0625 177.75 62.8906C177.641 62.7031 177.539 62.4844 177.445 62.2344C177.336 61.9219 177.266 61.6562 177.234 61.4375C177.219 61.2031 177.234 61 177.281 60.8281C177.328 60.6562 177.406 60.5 177.516 60.3594C177.625 60.2188 177.758 60.0781 177.914 59.9375C178.102 59.7656 178.445 59.5469 178.945 59.2812C179.445 59.0156 180.023 58.7891 180.68 58.6016V58.3672C180.68 58.2891 180.68 58.2188 180.68 58.1562C180.695 58.0938 180.703 58.0312 180.703 57.9688L182.555 57.3594C182.68 57.3125 182.812 57.3125 182.953 57.3594C183.094 57.3906 183.148 57.5312 183.117 57.7812C183.117 57.8594 183.109 57.9375 183.094 58.0156C183.094 58.0938 183.086 58.1797 183.07 58.2734C184.07 58.3047 184.977 58.5078 185.789 58.8828C186.617 59.2578 187.32 59.7734 187.898 60.4297C188.492 61.0703 188.953 61.8359 189.281 62.7266C189.609 63.6172 189.773 64.5859 189.773 65.6328C189.773 67.1797 189.555 68.5234 189.117 69.6641C188.68 70.8047 188.109 71.7734 187.406 72.5703C186.703 73.3672 185.906 74.0078 185.016 74.4922C184.125 74.9766 183.234 75.3281 182.344 75.5469C182.234 75.6562 182.086 75.7656 181.898 75.875C181.711 75.9844 181.508 76.0781 181.289 76.1562C181.07 76.2344 180.844 76.2891 180.609 76.3203C180.391 76.3672 180.195 76.375 180.023 76.3438C180.023 76.3125 180.023 76.2656 180.023 76.2031C180.039 76.1406 180.047 76.0859 180.047 76.0391C180.047 75.9766 180.055 75.9141 180.07 75.8516C179.461 75.8828 178.93 75.8516 178.477 75.7578C178.367 75.6953 178.266 75.5781 178.172 75.4062C178.125 75.3438 178.086 75.2656 178.055 75.1719C178.008 75.0938 177.977 75.0156 177.961 74.9375C177.914 74.7969 177.914 74.625 177.961 74.4219C178.727 74.5156 179.461 74.5156 180.164 74.4219C180.211 73.75 180.258 72.9375 180.305 71.9844C180.352 71.0156 180.398 69.9688 180.445 68.8438C180.477 68.1875 180.5 67.4922 180.516 66.7578C180.547 66.0078 180.57 65.2656 180.586 64.5312C180.602 63.7812 180.617 63.0547 180.633 62.3516C180.648 61.6484 180.656 61 180.656 60.4062C179.906 60.7031 179.32 61.1328 178.898 61.6953C178.492 62.2422 178.336 62.875 178.43 63.5938ZM182.625 63.7344C182.562 64.7812 182.516 65.8047 182.484 66.8047C182.453 67.8047 182.43 68.75 182.414 69.6406C182.414 70.5312 182.422 71.3438 182.438 72.0781C182.453 72.7969 182.469 73.4062 182.484 73.9062C183.984 73.3438 185.18 72.3984 186.07 71.0703C186.977 69.7422 187.43 68.0781 187.43 66.0781C187.43 65.2031 187.32 64.4062 187.102 63.6875C186.898 62.9531 186.602 62.3281 186.211 61.8125C185.82 61.2812 185.352 60.8672 184.805 60.5703C184.258 60.2734 183.656 60.1094 183 60.0781H182.906C182.859 60.5469 182.812 61.0859 182.766 61.6953C182.719 62.2891 182.672 62.9688 182.625 63.7344ZM197.578 69.9688C197.547 70.5781 197.438 71.1406 197.25 71.6562C197.078 72.1719 196.836 72.625 196.523 73.0156C196.211 73.3906 195.836 73.6875 195.398 73.9062C194.977 74.125 194.508 74.2422 193.992 74.2578C193.539 74.2734 193.109 74.1641 192.703 73.9297C192.312 73.6953 191.969 73.3672 191.672 72.9453C191.375 72.5234 191.148 72.0234 190.992 71.4453C190.852 70.8516 190.812 70.2109 190.875 69.5234C190.922 68.7266 191.07 68.0469 191.32 67.4844C191.57 66.9062 191.836 66.4297 192.117 66.0547C192.398 65.6797 192.656 65.4062 192.891 65.2344C193.141 65.0469 193.297 64.9375 193.359 64.9062C193.469 64.8594 193.57 64.8516 193.664 64.8828C193.758 64.8984 193.859 64.9219 193.969 64.9531C194 64.9688 194.031 65.0078 194.062 65.0703C194.125 65.1797 194.164 65.3828 194.18 65.6797C194.258 65.5078 194.359 65.3672 194.484 65.2578C194.609 65.1484 194.734 65.0703 194.859 65.0234C195.016 64.9609 195.172 64.9219 195.328 64.9062C195.438 64.8906 195.625 64.9766 195.891 65.1641C196.172 65.3516 196.438 65.6484 196.688 66.0547C196.953 66.4609 197.18 66.9922 197.367 67.6484C197.555 68.2891 197.625 69.0625 197.578 69.9688ZM195.984 69.6875C196 69.3125 195.984 68.9375 195.938 68.5625C195.906 68.1719 195.844 67.8203 195.75 67.5078C195.672 67.1797 195.57 66.9219 195.445 66.7344C195.32 66.5312 195.195 66.4297 195.07 66.4297C194.93 66.4609 194.773 66.5312 194.602 66.6406C194.461 66.7344 194.305 66.8828 194.133 67.0859C193.961 67.2891 193.797 67.5781 193.641 67.9531C193.625 67.9062 193.609 67.8203 193.594 67.6953C193.578 67.5859 193.562 67.4453 193.547 67.2734C193.547 67.0859 193.562 66.8359 193.594 66.5234C193.375 66.7891 193.203 67.1016 193.078 67.4609C192.969 67.8203 192.883 68.1641 192.82 68.4922C192.758 68.8828 192.711 69.2734 192.68 69.6641C192.664 70.0859 192.68 70.5 192.727 70.9062C192.789 71.3125 192.883 71.6719 193.008 71.9844C193.148 72.2969 193.312 72.5469 193.5 72.7344C193.688 72.9219 193.914 73.0078 194.18 72.9922C194.445 72.9766 194.68 72.8672 194.883 72.6641C195.086 72.4609 195.266 72.2031 195.422 71.8906C195.578 71.5781 195.703 71.2266 195.797 70.8359C195.891 70.4453 195.953 70.0625 195.984 69.6875ZM216.422 75.1484C216.266 75.3672 216.086 75.5312 215.883 75.6406C215.68 75.7656 215.484 75.8516 215.297 75.8984C215.078 75.9609 214.844 75.9844 214.594 75.9688C214.5 75.9688 214.398 75.9453 214.289 75.8984C214.195 75.8672 214.094 75.8203 213.984 75.7578C213.875 75.7109 213.781 75.6328 213.703 75.5234C213.484 74.7422 213.289 73.9844 213.117 73.25C212.945 72.5156 212.797 71.8594 212.672 71.2812C212.516 70.6094 212.383 69.9766 212.273 69.3828C211.852 69.3672 211.219 69.3672 210.375 69.3828C209.547 69.3828 208.648 69.4297 207.68 69.5234C207.383 70.4609 207.148 71.25 206.977 71.8906C206.805 72.5312 206.68 73.0625 206.602 73.4844C206.523 73.9062 206.492 74.25 206.508 74.5156C206.523 74.7969 206.57 75.0391 206.648 75.2422C206.43 75.4609 206.211 75.6172 205.992 75.7109C205.789 75.8203 205.602 75.8906 205.43 75.9219C205.227 75.9688 205.031 75.9844 204.844 75.9688C204.594 75.9375 204.391 75.8906 204.234 75.8281C204.078 75.7812 203.961 75.6953 203.883 75.5703C203.82 75.4609 203.797 75.2969 203.812 75.0781C203.844 74.8594 203.906 74.5703 204 74.2109C204.094 73.8984 204.266 73.3438 204.516 72.5469C204.781 71.7344 205.078 70.8125 205.406 69.7812C204.812 69.8281 204.352 69.7969 204.023 69.6875C203.711 69.5781 203.492 69.2812 203.367 68.7969C203.617 68.7188 203.883 68.6484 204.164 68.5859C204.461 68.5078 204.742 68.4375 205.008 68.375C205.305 68.3125 205.609 68.2578 205.922 68.2109C206.25 67.1797 206.586 66.1641 206.93 65.1641C207.273 64.1641 207.594 63.2656 207.891 62.4688L209.25 58.8359C209.281 58.7422 209.445 58.6406 209.742 58.5312C210.039 58.4219 210.367 58.3359 210.727 58.2734C211.086 58.1953 211.43 58.1562 211.758 58.1562C212.086 58.1562 212.297 58.2266 212.391 58.3672C212.438 58.6953 212.5 59.1016 212.578 59.5859C212.672 60.0703 212.758 60.5391 212.836 60.9922C212.93 61.5234 213.039 62.0703 213.164 62.6328C213.305 63.4141 213.453 64.2812 213.609 65.2344C213.781 66.1875 213.992 67.2031 214.242 68.2812C214.492 69.3594 214.789 70.4766 215.133 71.6328C215.477 72.7891 215.906 73.9609 216.422 75.1484ZM209.906 67.8125C210.406 67.7969 210.82 67.7891 211.148 67.7891C211.477 67.7891 211.758 67.7969 211.992 67.8125L211.922 67.4609C211.828 66.8828 211.727 66.2656 211.617 65.6094C211.523 64.9531 211.422 64.3047 211.312 63.6641C211.219 63.0234 211.125 62.4141 211.031 61.8359C210.938 61.2578 210.859 60.75 210.797 60.3125C210.641 60.7188 210.461 61.2109 210.258 61.7891C210.055 62.3516 209.836 62.9688 209.602 63.6406C209.367 64.3125 209.125 65.0156 208.875 65.75C208.641 66.4844 208.406 67.2109 208.172 67.9297C208.453 67.8984 208.734 67.875 209.016 67.8594C209.297 67.8438 209.594 67.8281 209.906 67.8125ZM220.992 69.5469C221.336 69.6719 221.664 69.7891 221.977 69.8984C222.289 70.0078 222.562 70.1406 222.797 70.2969C223.031 70.4531 223.219 70.6406 223.359 70.8594C223.5 71.0625 223.57 71.3203 223.57 71.6328C223.57 72.0078 223.484 72.3594 223.312 72.6875C223.156 73.0156 222.922 73.3047 222.609 73.5547C222.297 73.8047 221.914 74 221.461 74.1406C221.023 74.2969 220.531 74.375 219.984 74.375C219.375 74.375 218.883 74.3125 218.508 74.1875C218.133 74.0781 217.844 73.9453 217.641 73.7891C217.438 73.6328 217.305 73.4766 217.242 73.3203C217.18 73.1641 217.148 73.0391 217.148 72.9453C217.148 72.7578 217.188 72.5547 217.266 72.3359C217.344 72.1016 217.492 71.8516 217.711 71.5859C217.805 71.4766 217.906 71.375 218.016 71.2812C218.234 71.0938 218.453 70.9766 218.672 70.9297C218.641 71.2891 218.68 71.5859 218.789 71.8203C218.914 72.0391 219.07 72.2109 219.258 72.3359C219.461 72.4609 219.68 72.5469 219.914 72.5938C220.164 72.6406 220.398 72.6641 220.617 72.6641C220.836 72.6641 221.055 72.6328 221.273 72.5703C221.508 72.5078 221.719 72.4297 221.906 72.3359C222.094 72.2266 222.242 72.1094 222.352 71.9844C222.477 71.8438 222.539 71.6953 222.539 71.5391C222.539 71.3672 222.469 71.2266 222.328 71.1172C222.188 71.0078 222.008 70.9219 221.789 70.8594C221.586 70.7812 221.359 70.7266 221.109 70.6953C220.875 70.6484 220.648 70.6016 220.43 70.5547C220.211 70.5078 219.914 70.4453 219.539 70.3672C219.18 70.2734 218.82 70.1328 218.461 69.9453C218.117 69.7578 217.812 69.5078 217.547 69.1953C217.297 68.8828 217.172 68.4688 217.172 67.9531C217.172 67.3594 217.32 66.8438 217.617 66.4062C217.93 65.9531 218.305 65.5781 218.742 65.2812C219.195 64.9688 219.672 64.7344 220.172 64.5781C220.672 64.4219 221.117 64.3438 221.508 64.3438C221.711 64.3438 221.93 64.375 222.164 64.4375C222.398 64.4844 222.617 64.5781 222.82 64.7188C223.023 64.8438 223.188 65.0156 223.312 65.2344C223.453 65.4531 223.523 65.7344 223.523 66.0781C223.523 66.4219 223.492 66.7031 223.43 66.9219C223.383 67.125 223.305 67.2891 223.195 67.4141C223.102 67.5234 222.984 67.5938 222.844 67.625C222.703 67.6562 222.539 67.6719 222.352 67.6719C222.227 67.6719 222.109 67.6562 222 67.625C221.906 67.5938 221.805 67.5625 221.695 67.5312C221.586 67.5 221.484 67.4453 221.391 67.3672C221.547 67.1797 221.664 67 221.742 66.8281C221.836 66.6562 221.883 66.4453 221.883 66.1953C221.883 65.9766 221.82 65.7812 221.695 65.6094C221.586 65.4375 221.398 65.3516 221.133 65.3516C220.852 65.3516 220.578 65.4062 220.312 65.5156C220.062 65.625 219.836 65.7734 219.633 65.9609C219.445 66.1484 219.289 66.3672 219.164 66.6172C219.055 66.8516 219 67.1094 219 67.3906C219 67.8125 219.156 68.2109 219.469 68.5859C219.797 68.9609 220.305 69.2812 220.992 69.5469ZM228.633 69.5469C228.977 69.6719 229.305 69.7891 229.617 69.8984C229.93 70.0078 230.203 70.1406 230.438 70.2969C230.672 70.4531 230.859 70.6406 231 70.8594C231.141 71.0625 231.211 71.3203 231.211 71.6328C231.211 72.0078 231.125 72.3594 230.953 72.6875C230.797 73.0156 230.562 73.3047 230.25 73.5547C229.938 73.8047 229.555 74 229.102 74.1406C228.664 74.2969 228.172 74.375 227.625 74.375C227.016 74.375 226.523 74.3125 226.148 74.1875C225.773 74.0781 225.484 73.9453 225.281 73.7891C225.078 73.6328 224.945 73.4766 224.883 73.3203C224.82 73.1641 224.789 73.0391 224.789 72.9453C224.789 72.7578 224.828 72.5547 224.906 72.3359C224.984 72.1016 225.133 71.8516 225.352 71.5859C225.445 71.4766 225.547 71.375 225.656 71.2812C225.875 71.0938 226.094 70.9766 226.312 70.9297C226.281 71.2891 226.32 71.5859 226.43 71.8203C226.555 72.0391 226.711 72.2109 226.898 72.3359C227.102 72.4609 227.32 72.5469 227.555 72.5938C227.805 72.6406 228.039 72.6641 228.258 72.6641C228.477 72.6641 228.695 72.6328 228.914 72.5703C229.148 72.5078 229.359 72.4297 229.547 72.3359C229.734 72.2266 229.883 72.1094 229.992 71.9844C230.117 71.8438 230.18 71.6953 230.18 71.5391C230.18 71.3672 230.109 71.2266 229.969 71.1172C229.828 71.0078 229.648 70.9219 229.43 70.8594C229.227 70.7812 229 70.7266 228.75 70.6953C228.516 70.6484 228.289 70.6016 228.07 70.5547C227.852 70.5078 227.555 70.4453 227.18 70.3672C226.82 70.2734 226.461 70.1328 226.102 69.9453C225.758 69.7578 225.453 69.5078 225.188 69.1953C224.938 68.8828 224.812 68.4688 224.812 67.9531C224.812 67.3594 224.961 66.8438 225.258 66.4062C225.57 65.9531 225.945 65.5781 226.383 65.2812C226.836 64.9688 227.312 64.7344 227.812 64.5781C228.312 64.4219 228.758 64.3438 229.148 64.3438C229.352 64.3438 229.57 64.375 229.805 64.4375C230.039 64.4844 230.258 64.5781 230.461 64.7188C230.664 64.8438 230.828 65.0156 230.953 65.2344C231.094 65.4531 231.164 65.7344 231.164 66.0781C231.164 66.4219 231.133 66.7031 231.07 66.9219C231.023 67.125 230.945 67.2891 230.836 67.4141C230.742 67.5234 230.625 67.5938 230.484 67.625C230.344 67.6562 230.18 67.6719 229.992 67.6719C229.867 67.6719 229.75 67.6562 229.641 67.625C229.547 67.5938 229.445 67.5625 229.336 67.5312C229.227 67.5 229.125 67.4453 229.031 67.3672C229.188 67.1797 229.305 67 229.383 66.8281C229.477 66.6562 229.523 66.4453 229.523 66.1953C229.523 65.9766 229.461 65.7812 229.336 65.6094C229.227 65.4375 229.039 65.3516 228.773 65.3516C228.492 65.3516 228.219 65.4062 227.953 65.5156C227.703 65.625 227.477 65.7734 227.273 65.9609C227.086 66.1484 226.93 66.3672 226.805 66.6172C226.695 66.8516 226.641 67.1094 226.641 67.3906C226.641 67.8125 226.797 68.2109 227.109 68.5859C227.438 68.9609 227.945 69.2812 228.633 69.5469ZM232.711 65.7031C232.711 65.6094 232.836 65.5078 233.086 65.3984C233.336 65.2891 233.609 65.2031 233.906 65.1406C234.219 65.0625 234.5 65.0234 234.75 65.0234C235.016 65.0078 235.148 65.0625 235.148 65.1875C235.148 65.4219 235.133 65.7578 235.102 66.1953C235.07 66.6172 235.031 67.0703 234.984 67.5547C234.938 68.0234 234.891 68.5 234.844 68.9844C234.797 69.4531 234.766 69.8516 234.75 70.1797C234.719 70.5234 234.688 70.8984 234.656 71.3047C234.625 71.6484 234.602 72.0312 234.586 72.4531C234.57 72.875 234.57 73.3047 234.586 73.7422C234.586 73.8203 234.508 73.8984 234.352 73.9766C234.195 74.0547 234.023 74.1094 233.836 74.1406C233.648 74.1875 233.469 74.2109 233.297 74.2109C233.125 74.2109 233.031 74.1797 233.016 74.1172C232.984 74.0547 232.953 73.9453 232.922 73.7891C232.891 73.6328 232.859 73.4141 232.828 73.1328C232.797 72.8359 232.773 72.4609 232.758 72.0078C232.742 71.5391 232.75 70.9766 232.781 70.3203C232.844 69.0234 232.852 68.0234 232.805 67.3203C232.758 66.6016 232.727 66.0625 232.711 65.7031ZM234.352 61.0391C234.664 61.0391 234.961 61.1328 235.242 61.3203C235.523 61.5078 235.664 61.7578 235.664 62.0703C235.664 62.3047 235.602 62.5312 235.477 62.75C235.367 62.9688 235.227 63.1641 235.055 63.3359C234.883 63.5078 234.688 63.6484 234.469 63.7578C234.25 63.8516 234.047 63.8984 233.859 63.8984C233.609 63.8984 233.406 63.8594 233.25 63.7812C233.094 63.6875 232.969 63.5859 232.875 63.4766C232.797 63.3516 232.742 63.2188 232.711 63.0781C232.68 62.9375 232.664 62.8047 232.664 62.6797C232.664 62.5234 232.688 62.3516 232.734 62.1641C232.781 61.9609 232.867 61.7812 232.992 61.625C233.117 61.4531 233.289 61.3125 233.508 61.2031C233.727 61.0938 234.008 61.0391 234.352 61.0391ZM233.766 63.2188C233.859 63.2188 233.961 63.1875 234.07 63.125C234.195 63.0469 234.305 62.9609 234.398 62.8672C234.508 62.7734 234.594 62.6719 234.656 62.5625C234.734 62.4531 234.773 62.3594 234.773 62.2812C234.773 62.1562 234.711 62.0938 234.586 62.0938C234.508 62.0938 234.406 62.125 234.281 62.1875C234.172 62.25 234.062 62.3281 233.953 62.4219C233.844 62.5 233.75 62.5938 233.672 62.7031C233.609 62.7969 233.578 62.8906 233.578 62.9844C233.578 63.1406 233.641 63.2188 233.766 63.2188ZM240.469 69.5469C240.812 69.6719 241.141 69.7891 241.453 69.8984C241.766 70.0078 242.039 70.1406 242.273 70.2969C242.508 70.4531 242.695 70.6406 242.836 70.8594C242.977 71.0625 243.047 71.3203 243.047 71.6328C243.047 72.0078 242.961 72.3594 242.789 72.6875C242.633 73.0156 242.398 73.3047 242.086 73.5547C241.773 73.8047 241.391 74 240.938 74.1406C240.5 74.2969 240.008 74.375 239.461 74.375C238.852 74.375 238.359 74.3125 237.984 74.1875C237.609 74.0781 237.32 73.9453 237.117 73.7891C236.914 73.6328 236.781 73.4766 236.719 73.3203C236.656 73.1641 236.625 73.0391 236.625 72.9453C236.625 72.7578 236.664 72.5547 236.742 72.3359C236.82 72.1016 236.969 71.8516 237.188 71.5859C237.281 71.4766 237.383 71.375 237.492 71.2812C237.711 71.0938 237.93 70.9766 238.148 70.9297C238.117 71.2891 238.156 71.5859 238.266 71.8203C238.391 72.0391 238.547 72.2109 238.734 72.3359C238.938 72.4609 239.156 72.5469 239.391 72.5938C239.641 72.6406 239.875 72.6641 240.094 72.6641C240.312 72.6641 240.531 72.6328 240.75 72.5703C240.984 72.5078 241.195 72.4297 241.383 72.3359C241.57 72.2266 241.719 72.1094 241.828 71.9844C241.953 71.8438 242.016 71.6953 242.016 71.5391C242.016 71.3672 241.945 71.2266 241.805 71.1172C241.664 71.0078 241.484 70.9219 241.266 70.8594C241.062 70.7812 240.836 70.7266 240.586 70.6953C240.352 70.6484 240.125 70.6016 239.906 70.5547C239.688 70.5078 239.391 70.4453 239.016 70.3672C238.656 70.2734 238.297 70.1328 237.938 69.9453C237.594 69.7578 237.289 69.5078 237.023 69.1953C236.773 68.8828 236.648 68.4688 236.648 67.9531C236.648 67.3594 236.797 66.8438 237.094 66.4062C237.406 65.9531 237.781 65.5781 238.219 65.2812C238.672 64.9688 239.148 64.7344 239.648 64.5781C240.148 64.4219 240.594 64.3438 240.984 64.3438C241.188 64.3438 241.406 64.375 241.641 64.4375C241.875 64.4844 242.094 64.5781 242.297 64.7188C242.5 64.8438 242.664 65.0156 242.789 65.2344C242.93 65.4531 243 65.7344 243 66.0781C243 66.4219 242.969 66.7031 242.906 66.9219C242.859 67.125 242.781 67.2891 242.672 67.4141C242.578 67.5234 242.461 67.5938 242.32 67.625C242.18 67.6562 242.016 67.6719 241.828 67.6719C241.703 67.6719 241.586 67.6562 241.477 67.625C241.383 67.5938 241.281 67.5625 241.172 67.5312C241.062 67.5 240.961 67.4453 240.867 67.3672C241.023 67.1797 241.141 67 241.219 66.8281C241.312 66.6562 241.359 66.4453 241.359 66.1953C241.359 65.9766 241.297 65.7812 241.172 65.6094C241.062 65.4375 240.875 65.3516 240.609 65.3516C240.328 65.3516 240.055 65.4062 239.789 65.5156C239.539 65.625 239.312 65.7734 239.109 65.9609C238.922 66.1484 238.766 66.3672 238.641 66.6172C238.531 66.8516 238.477 67.1094 238.477 67.3906C238.477 67.8125 238.633 68.2109 238.945 68.5859C239.273 68.9609 239.781 69.2812 240.469 69.5469Z" fill="#F2F2F2"/>
</g>
<defs>
<filter id="filter0_d" x="0.769531" y="0" width="276.23" height="90" filterUnits="userSpaceOnUse" color-interpolation-filters="sRGB">
<feFlood flood-opacity="0" result="BackgroundImageFix"/>
<feColorMatrix in="SourceAlpha" type="matrix" values="0 0 0 0 0 0 0 0 0 0 0 0 0 0 0 0 0 0 127 0" result="hardAlpha"/>
<feOffset dy="4"/>
<feGaussianBlur stdDeviation="2"/>
<feComposite in2="hardAlpha" operator="out"/>
<feColorMatrix type="matrix" values="0 0 0 0 0 0 0 0 0 0 0 0 0 0 0 0 0 0 0.25 0"/>
<feBlend mode="normal" in2="BackgroundImageFix" result="effect1_dropShadow"/>
<feBlend mode="normal" in="SourceGraphic" in2="effect1_dropShadow" result="shape"/>
</filter>
</defs>
</svg>
